<?xml version="1.0" standalone="no"?>
<!DOCTYPE svg PUBLIC "-//W3C//DTD SVG 20010904//EN"
 "http://www.w3.org/TR/2001/REC-SVG-20010904/DTD/svg10.dtd">
<svg version="1.0" xmlns="http://www.w3.org/2000/svg"
 width="300.000000pt" height="442.000000pt" viewBox="0 0 300.000000 442.000000"
 preserveAspectRatio="xMidYMid meet">
<metadata>
Created by potrace 1.10, written by Peter Selinger 2001-2011
</metadata>
<g transform="translate(0.000000,442.000000) scale(0.100000,-0.100000)"
fill="#000000" stroke="none">
<path d="M78 4332 c-90 -3 -106 -18 -20 -19 31 0 130 -1 220 -2 l162 -1 -2
-332 -3 -331 -22 -2 c-43 -3 -36 -15 8 -15 l44 0 -3 352 -2 353 -153 0 c-83 0
-187 -1 -229 -3z"/>
<path d="M650 4215 l0 -125 220 0 c218 0 221 0 210 -20 -8 -16 -8 -24 3 -35
21 -21 57 -8 57 21 0 30 -16 31 -24 2 -5 -19 -8 -21 -16 -8 -21 33 16 40 216
40 161 0 193 -2 198 -15 3 -8 12 -15 21 -15 9 0 15 -9 15 -21 0 -18 -2 -19
-15 -9 -9 7 -18 10 -22 6 -13 -13 31 -35 50 -25 14 8 16 17 11 45 l-6 34 147
0 148 0 -6 -40 c-4 -34 -2 -40 13 -40 15 0 17 6 13 40 -4 26 -2 40 6 40 6 0
11 -13 11 -29 0 -16 6 -33 13 -39 18 -15 47 10 47 42 0 26 0 26 80 26 79 0 80
0 80 -25 0 -14 -5 -25 -11 -25 -5 0 -7 -4 -4 -10 3 -5 15 -10 25 -10 16 0 18
5 13 35 -5 31 -3 35 16 35 16 0 21 -6 21 -25 0 -14 -5 -25 -11 -25 -5 0 -7 -4
-4 -10 3 -5 15 -10 25 -10 16 0 18 5 13 35 l-6 35 62 0 c53 0 61 -2 61 -19 0
-31 56 -71 99 -71 56 0 91 36 91 93 0 81 -75 132 -135 93 -31 -21 -33 -40 -3
-30 42 13 81 6 100 -18 24 -31 22 -50 -7 -82 -33 -36 -77 -35 -104 2 -40 53
-41 53 -99 51 -47 -2 -58 0 -60 14 -5 23 -19 21 -32 -3 -6 -11 -15 -20 -20
-20 -6 0 -10 9 -10 20 0 24 -13 26 -30 5 -9 -11 -27 -15 -59 -13 l-46 3 -3 80
c-5 129 -16 121 150 117 93 -2 147 -7 155 -15 7 -7 13 -42 14 -79 3 -99 19
-72 19 33 l0 89 -845 0 -845 0 0 -125z m643 -45 c-3 -30 -5 -56 -6 -57 -1 -1
-32 -3 -69 -4 -51 -2 -70 2 -83 14 -9 10 -20 17 -25 17 -18 0 -40 -13 -40 -24
0 -11 -298 -12 -367 -1 l-33 6 0 89 c0 50 1 91 3 92 1 1 139 5 307 8 l305 5 6
-45 c3 -25 4 -70 2 -100z m513 126 c2 -11 4 -57 2 -101 l-3 -80 -113 -5 c-63
-3 -116 -2 -119 3 -6 9 -60 9 -65 -1 -1 -4 -44 -6 -94 -4 l-92 4 -4 80 c-3 44
-3 91 0 104 l4 24 239 -1 c236 -1 239 -1 245 -23z m89 -64 c0 -53 5 -87 11
-89 8 -3 12 22 12 74 0 50 -2 72 -9 63 -7 -13 -9 -12 -9 3 0 9 5 17 11 17 5 0
8 4 5 9 -3 5 9 8 27 7 l32 -2 3 -107 c1 -59 -1 -107 -5 -107 -4 0 -17 7 -27
15 -17 13 -22 13 -38 -2 -17 -15 -19 -15 -32 3 -14 18 -15 18 -21 2 -16 -42
-25 -11 -25 86 0 106 1 110 43 112 21 1 22 -2 22 -84z m45 -172 c0 -16 -4 -30
-9 -30 -5 0 -11 14 -13 30 -3 20 0 30 9 30 8 0 13 -12 13 -30z"/>
<path d="M844 4225 c1 -28 5 -35 21 -34 11 0 14 3 8 6 -16 6 -17 35 -1 51 9 9
7 12 -8 12 -17 0 -20 -6 -20 -35z"/>
<path d="M890 4225 c0 -29 3 -36 18 -33 11 2 17 13 17 33 0 20 -6 31 -17 33
-15 3 -18 -4 -18 -33z"/>
<path d="M941 4223 c0 -21 3 -32 6 -26 3 9 10 10 22 4 13 -8 16 -5 16 13 -3
57 -45 66 -44 9z"/>
<path d="M1060 4223 c0 -25 3 -33 9 -24 6 9 11 10 15 2 4 -6 12 -11 17 -11 6
0 7 6 2 12 -4 7 -7 22 -8 33 0 11 -8 21 -17 23 -15 3 -18 -4 -18 -35z"/>
<path d="M1116 4245 c4 -11 7 -28 8 -37 1 -25 11 -22 24 7 15 32 15 56 1 32
-10 -18 -11 -18 -26 0 -14 17 -14 17 -7 -2z"/>
<path d="M1010 4229 c-6 -11 -9 -25 -6 -32 3 -9 5 -9 5 1 1 13 27 17 34 5 2
-5 2 -2 0 5 -1 8 -3 20 -3 28 0 21 -18 17 -30 -7z"/>
<path d="M1352 4288 c-15 -15 -16 -45 -1 -54 6 -3 16 -1 22 5 8 8 6 11 -6 11
-21 0 -22 19 -2 26 16 6 21 24 7 24 -4 0 -13 -5 -20 -12z"/>
<path d="M1394 4286 c-10 -26 1 -51 21 -51 15 0 21 8 23 33 3 27 0 32 -18 32
-11 0 -23 -6 -26 -14z"/>
<path d="M1460 4288 c0 -9 -2 -22 -3 -30 -2 -7 -2 -9 1 -4 2 4 8 2 13 -5 8
-12 11 -11 19 1 6 10 10 11 10 3 0 -18 18 -16 37 2 13 14 17 13 32 -6 23 -28
41 -17 40 24 -2 31 -2 31 -6 4 -5 -31 -24 -32 -33 -1 -3 10 -15 20 -27 22 -19
3 -23 -2 -24 -25 -1 -21 -3 -23 -6 -8 -7 29 -23 43 -23 20 0 -18 0 -18 -15 1
-12 16 -14 17 -15 2z"/>
<path d="M1628 4288 c5 -7 12 -22 15 -33 4 -18 5 -18 6 3 1 29 19 29 23 0 2
-13 11 -24 23 -26 20 -4 20 -4 0 12 -20 15 -20 15 0 16 11 1 14 4 8 7 -18 7
-16 23 2 23 9 0 15 -9 15 -22 0 -17 6 -23 23 -24 16 -1 23 4 22 15 -2 34 -16
41 -82 41 -51 0 -63 -3 -55 -12z"/>
<path d="M1457 4203 c-4 -3 -7 -19 -7 -35 0 -23 4 -28 23 -27 16 1 18 2 5 6
-10 2 -18 9 -18 14 0 5 8 9 18 10 14 0 14 2 -3 9 -17 7 -17 9 -2 9 9 1 17 6
17 11 0 11 -23 14 -33 3z"/>
<path d="M1669 4208 c0 -2 -3 -14 -5 -27 -6 -35 -14 -39 -14 -7 0 26 -1 27
-55 25 -41 -2 -55 -6 -55 -17 0 -12 -4 -12 -20 3 -20 18 -20 17 -19 -16 0 -25
2 -29 8 -16 6 17 8 17 20 3 16 -19 31 -12 31 15 0 29 18 23 23 -8 l4 -28 2 28
c1 34 21 36 21 1 0 -14 4 -22 10 -19 5 3 26 2 45 -4 33 -9 50 1 23 13 -10 5
-10 7 1 12 11 5 11 8 0 15 -11 7 -10 9 4 9 10 0 15 5 12 10 -5 9 -34 15 -36 8z"/>
<path d="M1407 4193 c-4 -3 -7 -17 -7 -30 0 -16 6 -23 20 -23 11 0 20 4 20 10
0 5 -7 7 -15 4 -21 -9 -19 23 3 35 14 9 15 10 1 11 -9 0 -19 -3 -22 -7z"/>
<path d="M543 4286 c-27 -13 -30 -48 -7 -67 14 -12 16 -9 12 21 -3 38 9 47 37
26 19 -14 19 -15 -3 -55 -24 -43 -26 -91 -4 -99 8 -2 12 10 12 41 0 28 6 52
16 62 21 20 26 78 6 70 -7 -3 -21 -1 -30 3 -10 5 -27 4 -39 -2z"/>
<path d="M2037 4243 c-4 -3 -7 -15 -7 -25 0 -16 20 -19 50 -8 3 2 8 2 13 1 8
-1 10 23 1 32 -3 3 -15 -4 -27 -16 -15 -15 -22 -17 -25 -8 -2 7 2 17 9 22 8 5
9 9 3 9 -6 0 -14 -3 -17 -7z"/>
<path d="M2137 4230 c-3 -11 -1 -23 4 -26 5 -3 9 4 9 15 0 25 20 28 21 4 0
-15 2 -15 9 2 8 19 9 19 9 -2 1 -15 7 -23 19 -23 14 0 15 2 2 10 -13 9 -13 10
0 10 13 0 13 1 0 10 -13 8 -12 10 3 10 10 0 17 -8 17 -20 0 -12 7 -20 18 -20
14 0 15 2 2 10 -13 9 -13 10 0 10 13 0 13 1 0 10 -13 8 -12 10 3 10 11 0 17
-8 18 -22 0 -13 3 -17 6 -10 4 10 8 10 19 1 11 -9 14 -6 14 17 0 20 -3 25 -9
15 -6 -9 -11 -10 -15 -2 -4 6 -36 11 -75 11 -60 0 -69 -2 -74 -20z"/>
<path d="M2530 4115 c0 -38 2 -41 28 -40 25 0 27 3 27 39 0 36 -2 39 -27 40
-26 2 -28 -1 -28 -39z"/>
<path d="M2890 3888 l0 -268 53 0 53 0 -3 63 c-6 91 -11 101 -12 25 l-1 -68
-35 0 c-19 0 -35 4 -35 10 0 5 6 7 14 4 10 -4 13 5 13 35 0 44 -16 47 -18 3
-2 -24 -2 -25 -6 -4 -3 13 2 33 10 46 10 15 14 43 12 95 -4 101 -15 102 -15 1
0 -46 -2 -81 -5 -79 -8 9 -10 189 -2 189 5 0 6 9 2 20 -5 15 -3 18 9 14 13 -5
16 2 16 40 0 33 -4 46 -14 46 -8 0 -17 -6 -19 -12 -3 -8 -6 -6 -6 5 -1 15 9
21 30 19 4 -1 7 10 7 23 0 13 -5 23 -10 22 -6 -1 -12 3 -14 8 -3 6 10 11 28
10 l33 0 6 -65 6 -65 1 57 c1 31 5 63 8 71 4 12 -6 16 -50 19 l-56 3 0 -267z"/>
<path d="M2611 4145 c8 -7 249 -9 256 -2 3 4 -54 7 -127 7 -73 0 -131 -2 -129
-5z"/>
<path d="M156 4113 c-3 -4 -3 -22 0 -40 4 -19 2 -33 -4 -33 -5 0 -13 16 -16
35 -8 43 -21 45 -30 4 -9 -45 -7 -56 5 -39 8 11 12 12 16 3 8 -22 53 -15 63
10 l9 22 0 -22 c1 -13 6 -23 11 -23 6 0 8 11 4 25 -5 19 -3 25 7 23 8 -2 17
-14 20 -28 5 -19 7 -15 8 18 1 40 -11 57 -22 30 -4 -10 -6 -10 -6 0 -1 18 -19
15 -24 -5 -4 -16 -5 -16 -6 -2 -1 18 -25 32 -35 22z"/>
<path d="M309 4093 c0 -28 -1 -28 -11 -5 -18 36 -38 27 -38 -18 0 -29 4 -40
15 -40 8 0 15 8 15 18 0 14 -2 15 -10 2 -7 -11 -10 -6 -10 20 l0 35 16 -30
c26 -52 34 -52 34 -2 0 49 -10 67 -11 20z"/>
<path d="M2697 4048 c7 -55 13 -61 13 -15 0 21 5 37 10 37 6 0 10 5 10 10 0 6
-9 10 -19 10 -17 0 -18 -5 -14 -42z"/>
<path d="M582 4040 c-44 -27 -72 -76 -72 -128 0 -48 11 -75 46 -112 l24 -26 2
-854 3 -855 -29 -20 c-72 -50 -93 -124 -56 -200 15 -30 34 -52 54 -61 l31 -15
-2 -241 c-2 -224 -4 -243 -22 -262 -39 -42 -36 -102 9 -144 18 -17 19 -20 5
-32 -18 -15 -20 -53 -3 -83 15 -28 10 -108 -8 -128 -8 -8 -14 -25 -14 -36 0
-29 38 -73 62 -73 11 0 31 -11 44 -25 28 -31 47 -32 75 -4 21 21 22 21 32 3
35 -65 162 -137 302 -173 274 -71 648 -69 901 5 149 43 242 97 283 165 l20 32
12 -26 c17 -37 60 -53 99 -37 17 7 35 21 40 31 13 24 13 86 0 94 -6 4 0 15 15
27 33 26 34 70 0 96 -19 15 -25 29 -25 60 0 23 6 45 15 52 19 16 19 54 0 70
-11 9 -12 17 -5 30 13 24 13 77 0 85 -6 4 -10 105 -10 272 l0 265 30 34 c52
60 53 150 0 215 l-30 38 0 950 0 951 -811 0 -811 0 -20 25 c-44 56 -126 71
-186 35z m110 -19 c91 -35 116 -137 49 -202 -66 -63 -146 -48 -185 35 -20 43
-20 69 1 113 24 51 83 74 135 54z m1108 -86 l0 -25 115 0 115 0 0 25 0 25 180
0 180 0 0 -936 0 -935 -21 6 c-11 4 -40 7 -64 7 -178 0 -218 -263 -50 -327 42
-17 62 -16 122 1 18 5 21 3 16 -15 -3 -12 -13 -21 -24 -21 -18 0 -19 -9 -19
-115 0 -108 1 -115 20 -115 19 0 20 -7 20 -113 l0 -114 -29 5 c-22 3 -36 -2
-56 -22 -15 -15 -23 -31 -19 -38 6 -9 9 -8 12 2 12 36 45 47 77 26 21 -14 23
-23 23 -96 0 -71 -2 -80 -19 -80 -12 0 -21 10 -25 28 -7 27 -62 88 -71 78 -3
-3 8 -17 23 -33 16 -15 27 -34 26 -40 -4 -20 16 -51 38 -58 31 -10 28 -71 -5
-97 -25 -20 -34 -61 -15 -73 6 -3 10 1 10 9 0 9 9 25 20 36 20 20 20 20 36 -5
15 -23 15 -26 -5 -51 -14 -18 -19 -34 -14 -55 8 -41 -14 -79 -45 -79 -29 0
-62 26 -62 49 0 14 -2 14 -10 1 -6 -10 -10 67 -10 228 l0 242 -759 0 -759 0
-7 -142 c-4 -79 -5 -190 -2 -248 5 -93 4 -101 -7 -70 -7 19 -20 36 -29 38 -10
2 -17 11 -17 19 0 27 -31 53 -62 53 -25 0 -28 3 -28 35 0 30 3 35 24 35 50 0
88 60 61 96 -13 18 -14 17 -15 -19 0 -30 -5 -39 -22 -46 -44 -16 -68 16 -48
61 9 20 7 33 -13 73 -20 39 -23 54 -15 74 24 65 75 79 127 35 23 -19 31 -22
31 -11 0 26 -49 57 -91 57 l-39 0 0 105 c0 98 1 105 20 105 19 0 20 7 20 115
0 108 -1 115 -20 115 -11 0 -20 7 -20 16 0 11 6 14 20 9 11 -3 39 3 64 14 141
62 102 280 -50 284 l-34 1 0 588 c0 581 0 588 20 588 19 0 20 7 20 120 0 113
-1 120 -20 120 -19 0 -20 7 -20 143 l0 142 47 -3 c87 -5 153 60 153 151 l0 47
500 0 500 0 0 -25z m210 5 c0 -6 -38 -10 -95 -10 -57 0 -95 4 -95 10 0 6 38
10 95 10 57 0 95 -4 95 -10z m-1390 -580 c0 -60 -4 -100 -10 -100 -6 0 -10 40
-10 100 0 60 4 100 10 100 6 0 10 -40 10 -100z m1718 -1280 c33 0 41 -5 69
-48 57 -83 54 -140 -12 -211 -28 -29 -39 -33 -82 -34 -67 -2 -114 33 -137 100
-15 43 -15 51 -1 93 17 48 88 114 113 105 8 -3 30 -5 50 -5z m-1620 -84 c58
-64 39 -156 -41 -195 -55 -27 -61 -26 -103 6 -85 64 -84 158 2 217 47 31 96
22 142 -28z m-98 -371 c0 -63 -4 -105 -10 -105 -11 0 -14 192 -3 203 12 13 13
7 13 -98z m1770 -6 c0 -59 -4 -99 -10 -99 -6 0 -10 42 -10 106 0 67 4 103 10
99 6 -3 10 -50 10 -106z m-130 -598 c0 -121 -4 -230 -9 -243 -25 -66 -146
-143 -296 -186 -177 -52 -505 -68 -722 -36 -201 30 -386 107 -447 187 l-26 34
0 231 0 232 750 0 750 0 0 -219z m-1582 -176 c48 -49 53 -82 12 -77 -14 1 -26
7 -28 12 -2 5 -19 14 -38 20 -28 10 -34 16 -34 40 0 25 19 48 40 50 3 0 25
-20 48 -45z"/>
<path d="M1461 2737 c-2 -122 16 -140 21 -20 2 56 -1 93 -8 101 -9 11 -12 -9
-13 -81z"/>
<path d="M1627 2813 c-4 -3 -7 -14 -7 -24 0 -10 -12 -40 -26 -66 -14 -27 -23
-58 -21 -71 3 -17 -1 -26 -17 -32 -19 -7 -19 -9 -4 -15 26 -10 35 0 40 48 3
24 14 57 26 73 31 45 38 117 9 87z"/>
<path d="M1527 2804 c-4 -4 -7 -20 -7 -36 0 -17 -4 -27 -10 -23 -5 3 -10 2
-10 -3 0 -12 26 -23 34 -15 3 4 6 19 6 35 0 30 17 37 39 16 10 -11 12 -9 9 7
-3 20 -46 33 -61 19z"/>
<path d="M1415 2760 c-4 -6 -11 -8 -16 -5 -5 4 -9 1 -9 -5 0 -6 7 -13 16 -17
13 -5 15 -15 10 -50 -3 -25 -2 -43 4 -43 6 0 10 29 10 65 0 64 -3 75 -15 55z"/>
<path d="M1411 2611 c-7 -5 -9 -11 -5 -14 14 -8 85 0 95 10 13 13 -70 16 -90
4z"/>
<path d="M1252 2415 c0 -35 2 -42 7 -25 3 14 12 26 20 28 10 2 12 -4 7 -23 -5
-20 -3 -25 13 -25 11 0 22 6 24 13 4 9 8 8 17 -3 10 -12 11 -10 6 10 -3 14 -6
33 -6 43 0 9 -5 17 -11 17 -7 0 -9 -10 -5 -27 5 -19 4 -24 -3 -14 -7 11 -10 9
-14 -10 -3 -17 -5 -13 -6 14 0 20 -5 37 -11 37 -5 0 -10 -5 -10 -12 0 -6 -7
-3 -15 8 -13 17 -14 15 -13 -31z"/>
<path d="M1472 2451 c-8 -5 -12 -22 -10 -42 3 -31 6 -34 36 -36 18 -1 32 4 32
10 0 7 5 6 11 -3 9 -12 10 -11 6 5 -3 11 -7 27 -9 35 -3 8 -3 12 -1 7 3 -4 8
-5 13 -2 5 3 11 -9 15 -25 9 -43 39 -37 43 9 4 36 -14 57 -35 40 -8 -7 -18 -7
-32 0 -25 14 -35 0 -27 -34 5 -19 3 -23 -9 -19 -8 4 -15 1 -15 -6 0 -6 -4 -8
-10 -5 -15 9 -12 45 5 51 8 4 15 10 15 15 0 11 -11 11 -28 0z m128 -36 c0 -14
-4 -25 -9 -25 -10 0 -21 36 -13 44 12 13 22 5 22 -19z"/>
<path d="M1622 2418 c-2 -42 1 -48 18 -48 17 0 20 6 18 48 l-1 47 -4 -42 c-2
-24 -8 -43 -13 -43 -5 0 -11 19 -13 43 l-4 42 -1 -47z"/>
<path d="M1720 2415 c0 -46 7 -54 28 -33 19 19 14 56 -8 68 -19 10 -20 8 -20
-35z"/>
<path d="M1382 2410 c0 -27 3 -35 5 -20 l5 24 14 -24 c12 -22 13 -23 14 -5 0
11 3 30 6 43 4 13 2 22 -5 22 -6 0 -11 -8 -11 -17 0 -15 -2 -14 -15 3 -13 18
-14 16 -13 -26z"/>
<path d="M1696 2418 c-3 -17 -2 -36 4 -42 7 -7 10 4 10 32 0 50 -5 54 -14 10z"/>
<path d="M1148 2313 c-10 -2 -18 -14 -18 -26 0 -20 0 -20 16 -1 13 16 15 16
10 2 -3 -11 0 -18 7 -18 7 0 12 11 12 25 0 14 -2 24 -5 24 -3 -1 -13 -3 -22
-6z"/>
<path d="M1201 2293 l1 -28 7 25 8 25 5 -25 c5 -25 5 -25 7 3 1 18 -4 27 -14
27 -10 0 -15 -9 -14 -27z"/>
<path d="M1247 2313 c-12 -11 -8 -43 6 -43 6 0 12 11 12 25 0 25 -6 31 -18 18z"/>
<path d="M1290 2294 c0 -13 5 -24 11 -24 5 0 8 4 4 9 -3 5 -1 13 5 16 6 4 9 1
8 -6 -2 -6 2 -13 7 -15 6 -2 10 7 10 20 0 18 -5 24 -22 24 -18 0 -23 -6 -23
-24z"/>
<path d="M1380 2305 c0 -7 -7 -18 -17 -23 -13 -8 -12 -9 8 -9 18 0 24 5 25 23
1 13 -2 24 -7 24 -5 0 -9 -7 -9 -15z"/>
<path d="M1473 2313 c-23 -4 -34 -43 -12 -43 5 0 7 5 4 10 -3 6 -1 10 4 10 6
0 11 -4 11 -10 0 -5 6 -10 13 -10 6 0 12 11 12 25 0 14 -2 24 -5 24 -3 -1 -15
-4 -27 -6z"/>
<path d="M1535 2311 c-3 -2 -5 -13 -5 -23 0 -28 37 -23 42 6 4 19 1 24 -14 23
-10 -1 -21 -3 -23 -6z"/>
<path d="M1681 2298 c-9 -20 -10 -20 -10 -3 -1 14 -4 16 -12 8 -16 -16 -2 -33
25 -31 13 1 23 9 23 20 2 28 -16 32 -26 6z"/>
<path d="M1731 2297 c-1 -24 3 -28 21 -25 14 2 22 11 23 26 1 12 -3 22 -8 22
-5 0 -12 -10 -15 -22 -6 -23 -6 -23 -13 2 -7 25 -7 25 -8 -3z"/>
<path d="M1888 2295 c-3 -15 1 -21 16 -23 16 -1 21 4 21 23 0 30 -32 30 -37 0z"/>
<path d="M1070 2292 c0 -13 8 -18 25 -18 14 0 25 6 25 12 0 21 -18 26 -23 7
-4 -17 -5 -17 -6 0 -1 23 -21 22 -21 -1z"/>
<path d="M704 1153 c-36 -50 -39 -56 -17 -45 28 16 45 39 41 57 -2 13 -8 11
-24 -12z"/>
<path d="M2295 850 c-16 -18 -16 -20 -2 -20 10 0 17 5 17 10 0 6 6 10 14 10 8
0 18 5 21 10 12 19 -32 10 -50 -10z"/>
<path d="M1063 1120 c-13 -10 -23 -26 -23 -35 0 -14 3 -15 15 -5 8 7 13 15 11
19 -2 3 2 12 10 18 21 20 27 -2 25 -88 -2 -51 2 -79 8 -79 7 0 11 30 11 78 0
62 -4 82 -17 95 -16 14 -20 14 -40 -3z"/>
<path d="M1332 1048 c-2 -42 1 -48 18 -48 17 0 20 6 18 48 l-1 47 -4 -42 c-2
-24 -8 -43 -13 -43 -5 0 -11 19 -13 43 l-4 42 -1 -47z"/>
<path d="M1380 1045 c0 -47 12 -58 29 -27 10 16 10 16 11 0 0 -10 5 -18 10
-18 6 0 10 16 10 35 0 19 5 35 11 35 8 0 10 -12 6 -35 -3 -19 -2 -35 3 -35 7
0 20 81 14 89 -2 2 -16 -1 -32 -7 -18 -6 -35 -6 -45 0 -15 8 -17 3 -17 -37z"/>
<path d="M1501 1077 c-24 -24 -6 -85 23 -74 10 4 16 18 16 41 0 36 -19 53 -39
33z m29 -32 c0 -14 -4 -25 -9 -25 -12 0 -23 29 -15 41 10 18 24 9 24 -16z"/>
<path d="M1280 1063 c0 -10 -3 -29 -6 -43 -5 -20 -4 -22 6 -10 9 11 13 12 17
3 12 -30 20 -9 11 27 -11 41 -28 55 -28 23z"/>
<path d="M1551 1036 c0 -35 2 -37 9 -18 5 12 8 28 6 35 -1 6 -1 9 1 4 3 -4 9
-5 14 -1 5 3 9 -7 9 -23 0 -22 -2 -25 -10 -13 -8 13 -10 13 -10 -2 0 -13 10
-16 50 -16 46 -1 50 1 50 24 0 31 23 27 31 -6 5 -19 7 -15 8 18 1 40 -11 57
-22 30 -4 -10 -6 -10 -6 0 -2 24 -21 11 -22 -15 l-1 -28 -8 30 c-8 30 -8 30
-9 -8 -1 -24 -5 -36 -12 -32 -6 4 -7 19 -4 35 6 28 5 29 -34 28 l-41 0 1 -42z"/>
<path d="M1065 1061 c-3 -6 -11 -9 -16 -6 -5 4 -9 2 -9 -4 0 -5 5 -13 11 -16
6 -4 8 -22 4 -46 -4 -24 -3 -39 3 -39 6 0 12 26 14 58 4 62 3 69 -7 53z"/>
<path d="M1087 933 c-59 -5 -52 -23 9 -23 32 0 44 4 44 15 0 8 -1 14 -2 13 -2
-1 -24 -3 -51 -5z"/>
<path d="M2527 4016 c-11 -27 -8 -396 3 -396 6 0 10 71 10 205 0 113 -2 205
-4 205 -2 0 -6 -6 -9 -14z"/>
<path d="M80 3965 c0 -39 3 -46 18 -43 13 2 17 13 17 43 0 30 -4 41 -17 43
-15 3 -18 -4 -18 -43z"/>
<path d="M132 3968 c-2 -44 0 -48 21 -47 16 1 17 3 5 6 -12 3 -18 17 -21 46
l-4 42 -1 -47z"/>
<path d="M187 4003 c-10 -9 -8 -56 3 -73 8 -12 13 -13 30 -2 12 7 20 8 20 2 0
-5 10 -9 23 -9 16 1 18 2 5 6 -12 3 -18 14 -18 33 0 19 6 30 18 32 11 2 13 6
5 11 -6 4 -18 1 -26 -8 -13 -13 -16 -13 -27 0 -14 16 -23 19 -33 8z m29 -28
c4 -8 3 -23 0 -32 -6 -15 -8 -15 -16 -3 -13 20 -12 50 0 50 6 0 13 -7 16 -15z"/>
<path d="M292 3965 c0 -35 2 -44 8 -30 7 18 8 19 15 3 4 -10 12 -18 17 -18 6
0 3 10 -5 23 -10 15 -12 29 -6 38 14 22 10 36 -5 16 -14 -18 -14 -18 -19 0 -3
10 -5 -4 -5 -32z"/>
<path d="M2570 3935 c0 -39 3 -46 18 -43 13 2 17 13 17 43 0 30 -4 41 -17 43
-15 3 -18 -4 -18 -43z"/>
<path d="M2622 3938 c-2 -42 1 -48 18 -48 11 0 20 4 20 10 0 5 -6 7 -14 4 -11
-4 -16 5 -19 38 l-4 43 -1 -47z"/>
<path d="M2677 3973 c-4 -3 -7 -21 -7 -40 0 -37 25 -56 42 -32 7 11 11 11 15
2 2 -7 14 -12 26 -12 17 1 18 2 5 6 -23 6 -25 63 -3 63 8 0 15 5 15 10 0 17
-28 11 -39 -7 -9 -17 -10 -17 -16 0 -7 17 -26 23 -38 10z m27 -29 c7 -19 -2
-37 -15 -29 -12 8 -12 45 0 45 5 0 12 -7 15 -16z"/>
<path d="M2782 3935 c0 -33 2 -43 7 -30 8 19 8 19 19 0 6 -11 14 -17 18 -12 4
4 0 15 -9 25 -11 12 -13 22 -7 32 15 23 11 37 -4 17 -14 -18 -14 -18 -19 0 -3
10 -5 -4 -5 -32z"/>
<path d="M2957 3933 c-13 -12 -8 -80 6 -80 15 0 16 24 2 46 -5 9 -4 12 3 8 6
-5 8 0 5 13 -6 22 -7 23 -16 13z"/>
<path d="M202 3838 c-14 -14 -16 -58 -4 -58 14 0 34 52 24 62 -4 4 -13 3 -20
-4z"/>
<path d="M267 3833 c-4 -3 -7 -14 -7 -24 0 -13 -5 -17 -17 -13 -14 4 -14 2 3
-10 15 -12 19 -24 16 -49 -4 -38 -37 -66 -55 -48 -14 14 -37 14 -37 1 0 -15
66 -23 89 -11 18 10 20 20 20 86 -1 77 -1 80 -12 68z"/>
<path d="M2679 3830 c-4 -8 -5 -38 -4 -67 3 -39 -1 -53 -12 -58 -27 -10 -4
-19 40 -16 23 2 54 4 70 5 15 0 26 6 25 11 -2 6 -5 9 -8 9 -3 -1 -27 -4 -55
-8 l-50 -6 3 49 c5 60 -1 103 -9 81z"/>
<path d="M163 3775 c0 -33 2 -45 4 -27 2 18 2 45 0 60 -2 15 -4 0 -4 -33z"/>
<path d="M2722 3805 c-8 -16 -8 -26 -1 -31 6 -3 13 3 16 15 3 12 9 21 14 21 5
0 9 5 9 10 0 20 -27 9 -38 -15z"/>
<path d="M2780 3803 c0 -18 -9 -35 -27 -49 -37 -29 -26 -39 15 -14 24 15 32
27 32 49 0 17 -4 33 -10 36 -6 4 -10 -6 -10 -22z"/>
<path d="M197 3758 c-4 -13 11 -64 17 -57 2 2 6 19 9 37 5 23 3 32 -7 32 -8 0
-16 -6 -19 -12z"/>
<path d="M0 3646 c0 -13 11 -16 55 -16 47 0 54 2 43 14 -11 11 -35 14 -45 6
-8 -7 -30 -5 -40 3 -9 7 -13 5 -13 -7z"/>
<path d="M229 3631 c-18 -14 -28 -16 -45 -9 -28 13 -73 -8 -93 -43 -32 -57 24
-114 105 -107 36 3 39 1 42 -24 3 -29 -6 -36 -25 -17 -7 7 -20 9 -29 5 -16 -6
-14 -9 12 -25 22 -14 32 -16 43 -7 8 6 17 11 20 11 3 0 4 8 3 18 -2 12 4 17
23 17 38 0 83 26 100 60 19 36 19 44 0 85 -27 55 -109 74 -156 36z m114 -30
c28 -47 22 -77 -20 -106 -43 -29 -56 -31 -73 -10 -7 8 -21 15 -31 15 -11 0
-19 7 -19 16 0 13 7 15 30 11 23 -5 30 -3 30 9 0 25 -74 15 -78 -11 -6 -33
-20 -40 -42 -20 -40 36 -17 91 41 98 19 3 45 9 59 15 48 21 84 15 103 -17z"/>
<path d="M2619 3640 c-102 -31 -152 -144 -105 -242 20 -41 75 -83 123 -93 68
-14 157 32 183 95 8 20 18 29 27 26 23 -9 51 15 45 38 -3 12 -10 24 -16 28 -8
5 -7 8 2 8 17 0 15 47 -3 54 -8 3 -22 3 -30 0 -8 -4 -29 10 -52 34 -50 52
-112 71 -174 52z m141 -51 c28 -21 28 -22 12 -47 -12 -19 -13 -27 -4 -30 14
-4 16 -72 2 -72 -5 0 -10 -4 -10 -10 0 -5 7 -10 15 -10 35 0 2 -51 -52 -79
-54 -28 -150 5 -179 61 -21 41 -15 129 13 166 40 54 143 65 203 21z m60 -58
c0 -28 18 -36 22 -9 5 32 28 35 28 4 0 -14 -5 -26 -11 -26 -6 0 -3 -7 6 -16
17 -18 16 -35 -4 -42 -7 -2 -15 5 -18 17 -7 27 -23 27 -23 1 0 -11 -4 -20 -10
-20 -5 0 -10 25 -10 55 0 30 5 55 10 55 6 0 10 -9 10 -19z"/>
<path d="M2584 3566 c-3 -8 -4 -27 -2 -43 2 -20 8 -28 23 -28 11 0 21 8 23 18
2 11 -3 17 -15 16 -10 0 -13 -3 -5 -6 6 -2 10 -9 6 -14 -8 -14 -24 0 -24 22 0
11 7 22 15 25 8 4 15 10 15 15 0 15 -30 10 -36 -5z"/>
<path d="M2644 3566 c-10 -27 1 -71 19 -74 9 -2 17 1 17 7 0 6 -6 10 -12 9 -8
-2 -14 9 -16 25 -2 19 1 27 12 27 9 0 16 5 16 10 0 15 -30 12 -36 -4z"/>
<path d="M2691 3533 c1 -39 2 -43 9 -23 5 16 8 19 9 8 1 -9 5 -19 9 -22 12 -7
10 68 -2 76 -21 15 -26 7 -25 -39z"/>
<path d="M2569 3456 c7 -8 9 -25 6 -39 -4 -14 -2 -28 3 -31 6 -3 11 13 14 39
3 39 0 45 -16 45 -15 0 -16 -3 -7 -14z"/>
<path d="M2611 3423 c1 -27 4 -37 6 -23 l5 24 12 -22 c11 -21 12 -19 12 20 -1
32 -5 44 -18 46 -15 3 -18 -4 -17 -45z"/>
<path d="M2660 3425 c0 -39 3 -45 21 -45 11 0 17 5 14 10 -4 6 -11 8 -16 5 -5
-4 -9 0 -9 9 0 8 6 17 13 19 10 4 10 6 0 6 -19 1 -15 29 5 34 13 4 11 5 -5 6
-21 1 -23 -4 -23 -44z"/>
<path d="M2710 3425 c0 -39 3 -45 21 -45 11 0 17 5 14 10 -4 6 -11 8 -16 5 -5
-4 -9 0 -9 9 0 8 6 17 13 19 10 4 10 6 0 6 -19 1 -15 29 5 34 13 4 11 5 -5 6
-21 1 -23 -4 -23 -44z"/>
<path d="M2900 3586 c0 -2 8 -24 19 -48 13 -31 16 -50 9 -61 -13 -23 -1 -57
20 -56 11 0 12 3 5 6 -15 5 -18 53 -4 53 10 0 23 42 15 49 -3 3 -9 -1 -14 -9
-7 -12 -10 -11 -16 4 -5 13 -1 23 11 32 27 20 43 17 48 -8 3 -17 5 -14 6 10
l1 32 -50 0 c-27 0 -50 -2 -50 -4z"/>
<path d="M2910 3410 c-1 -14 -4 -37 -6 -52 -3 -27 -1 -28 47 -28 47 0 49 1 48
28 -2 23 -2 24 -6 5 -5 -25 -28 -31 -36 -9 -3 8 -3 24 0 35 4 15 1 21 -11 21
-11 0 -16 -10 -18 -32 -1 -28 -2 -27 -8 12 -5 30 -8 37 -10 20z"/>
<path d="M0 3308 c0 -17 3 -19 12 -10 9 9 72 12 220 12 l208 0 0 -182 c0 -277
14 -303 20 -38 3 124 4 228 2 233 -2 4 -106 7 -233 7 l-229 0 0 -22z"/>
<path d="M2528 3313 c-2 -5 -1 -107 2 -228 l5 -220 5 223 c4 194 1 256 -12
225z"/>
<path d="M410 2731 l0 -121 28 0 27 0 -2 117 -2 118 -25 3 -26 3 0 -120z m39
11 c2 -79 -4 -112 -20 -112 -10 0 -13 183 -3 193 15 15 21 -7 23 -81z"/>
<path d="M2530 2732 l0 -119 28 4 27 5 0 114 0 114 -27 0 -28 0 0 -118z m40 4
c0 -53 -4 -98 -10 -101 -6 -4 -10 30 -10 94 0 61 4 101 10 101 6 0 10 -38 10
-94z"/>
<path d="M120 2795 c0 -25 5 -45 10 -45 6 0 10 11 10 25 0 34 18 32 23 -2 2
-17 5 -8 6 21 1 42 -1 47 -14 36 -10 -9 -15 -9 -15 -1 0 6 -4 11 -10 11 -5 0
-10 -20 -10 -45z"/>
<path d="M197 2833 c-3 -5 -8 -24 -12 -43 -7 -30 -6 -33 8 -22 13 11 16 10 20
-5 3 -11 5 -8 6 10 0 16 -3 26 -8 23 -4 -3 -6 6 -3 19 4 24 -2 33 -11 18z"/>
<path d="M234 2818 c3 -13 6 -33 6 -45 0 -16 6 -23 20 -23 11 0 20 5 20 10 0
6 -7 10 -15 10 -18 0 -20 16 -2 23 10 4 10 6 0 6 -19 1 -15 29 5 34 10 3 5 5
-12 6 -25 1 -28 -2 -22 -21z"/>
<path d="M2630 2785 c0 -33 4 -45 14 -45 8 0 18 5 21 10 3 6 -1 10 -9 10 -19
0 -21 16 -3 23 10 4 10 6 0 6 -19 1 -15 29 5 34 13 4 11 5 -5 6 -21 1 -23 -4
-23 -44z"/>
<path d="M2674 2806 c-9 -39 23 -84 41 -56 3 6 -1 10 -9 10 -23 0 -22 57 2 63
13 4 12 5 -5 6 -16 1 -24 -6 -29 -23z"/>
<path d="M2730 2785 c0 -33 4 -45 14 -45 8 0 18 5 21 10 3 6 -1 10 -9 10 -19
0 -21 16 -3 23 10 4 10 6 0 6 -19 1 -15 29 5 34 13 4 11 5 -5 6 -21 1 -23 -4
-23 -44z"/>
<path d="M2817 2823 c-11 -11 -8 -71 4 -79 6 -3 16 -1 22 5 8 8 6 11 -7 11
-13 0 -17 7 -14 28 2 15 8 26 16 25 6 -2 12 2 12 7 0 11 -23 14 -33 3z"/>
<path d="M2864 2818 c-4 -7 2 -18 14 -26 28 -19 28 -32 0 -32 -18 0 -20 -2 -9
-9 8 -5 20 -7 28 -4 18 7 17 42 -2 49 -8 4 -15 10 -15 16 0 5 5 6 10 3 6 -3
10 -1 10 4 0 15 -27 14 -36 -1z"/>
<path d="M2920 2785 c0 -38 3 -45 20 -45 11 0 20 5 20 10 0 6 -7 10 -15 10
-18 0 -20 16 -2 23 10 4 10 6 0 6 -19 1 -15 29 5 34 13 4 11 5 -5 6 -21 1 -23
-4 -23 -44z"/>
<path d="M70 2685 c0 -48 9 -55 34 -29 15 14 16 14 16 0 0 -18 35 -22 45 -6 3
6 -1 10 -9 10 -12 0 -16 10 -16 35 0 39 -16 48 -23 13 l-4 -23 -2 23 c-1 15
-7 22 -21 22 -17 0 -20 -7 -20 -45z"/>
<path d="M173 2715 c-9 -24 9 -70 27 -70 23 0 21 79 -3 83 -9 2 -20 -4 -24
-13z m37 -31 c0 -13 -4 -24 -9 -24 -11 0 -22 40 -15 52 9 15 24 -2 24 -28z"/>
<path d="M237 2723 c-11 -11 -8 -71 4 -79 6 -3 16 -1 22 5 8 8 6 11 -7 11 -13
0 -17 7 -14 28 2 15 8 26 16 25 6 -2 12 2 12 7 0 11 -23 14 -33 3z"/>
<path d="M282 2685 c0 -38 2 -44 8 -25 6 22 8 23 15 8 4 -10 11 -18 16 -18 5
0 4 11 -3 25 -8 19 -8 28 2 40 9 11 9 15 1 15 -6 0 -15 -8 -18 -17 -6 -15 -7
-15 -14 3 -5 12 -7 2 -7 -31z"/>
<path d="M2662 2682 c0 -48 5 -54 29 -41 16 8 19 17 15 35 -4 14 -2 24 5 24 6
0 9 -14 7 -32 -2 -28 0 -32 17 -30 26 5 33 12 12 12 -13 0 -17 9 -17 33 0 31
-2 34 -34 35 -33 1 -34 0 -34 -36z"/>
<path d="M2764 2705 c-11 -27 5 -65 26 -65 17 0 20 7 20 40 0 34 -3 40 -20 40
-11 0 -23 -7 -26 -15z m36 -25 c0 -16 -4 -30 -10 -30 -5 0 -10 14 -10 30 0 17
5 30 10 30 6 0 10 -13 10 -30z"/>
<path d="M2827 2713 c-13 -13 -7 -71 8 -76 8 -4 17 -2 20 3 4 6 -1 10 -9 10
-22 0 -21 46 2 59 14 9 15 10 1 11 -9 0 -19 -3 -22 -7z"/>
<path d="M2871 2677 c-1 -28 3 -46 9 -42 5 3 7 13 4 23 -5 14 -3 14 10 -2 9
-11 19 -17 22 -13 4 4 1 14 -6 23 -11 12 -11 20 -2 35 8 12 8 19 2 19 -6 0
-14 -8 -17 -17 -6 -15 -7 -15 -14 3 -5 13 -8 3 -8 -29z"/>
<path d="M2530 2375 c0 -126 2 -226 5 -223 7 6 7 439 0 446 -3 3 -5 -97 -5
-223z"/>
<path d="M448 2528 c-2 -35 0 -67 4 -72 4 -6 8 22 8 62 0 40 -2 72 -4 72 -2 0
-6 -28 -8 -62z"/>
<path d="M227 2563 c-11 -10 -8 -93 3 -93 6 0 10 23 10 50 0 51 -1 55 -13 43z"/>
<path d="M2727 2533 c-11 -11 -8 -153 3 -153 6 0 10 33 10 80 0 80 -1 86 -13
73z"/>
<path d="M2837 2533 c-11 -10 -8 -83 3 -83 6 0 10 20 10 45 0 46 -2 50 -13 38z"/>
<path d="M176 2501 c-20 -37 -20 -42 -2 -35 14 5 31 52 22 61 -2 3 -12 -9 -20
-26z"/>
<path d="M2793 2487 c-18 -39 -16 -55 3 -35 9 8 14 26 12 39 -3 23 -3 23 -15
-4z"/>
<path d="M271 2456 c-8 -10 -21 -14 -32 -11 -16 5 -19 1 -19 -29 0 -27 -4 -36
-17 -36 -13 0 -14 -3 -6 -11 19 -19 43 -2 43 30 0 21 4 29 13 25 16 -6 41 20
35 37 -2 7 -8 5 -17 -5z"/>
<path d="M133 2435 c6 -17 57 -18 57 -1 0 11 -9 15 -30 13 -16 -1 -28 -6 -27
-12z"/>
<path d="M2879 2437 c-7 -8 -22 -12 -33 -9 -16 4 -18 1 -14 -22 4 -18 1 -29
-8 -33 -21 -8 -17 -23 6 -23 16 0 20 7 20 30 0 23 5 30 19 30 10 0 22 7 25 16
9 23 1 28 -15 11z"/>
<path d="M2765 2421 c-3 -5 -1 -12 4 -15 12 -8 41 3 41 15 0 12 -37 12 -45 0z"/>
<path d="M2686 2363 c-15 -15 -3 -22 31 -19 21 2 39 8 40 13 4 11 -61 16 -71
6z"/>
<path d="M2525 2122 c-2 -2 -4 -337 -5 -745 l-1 -741 -26 -28 c-17 -18 -33
-26 -45 -23 -22 8 -55 -10 -63 -34 -4 -15 -13 -17 -55 -13 -46 4 -52 2 -80
-28 -24 -25 -30 -41 -30 -75 0 -26 6 -47 15 -55 8 -7 15 -19 15 -27 0 -8 5
-11 10 -8 6 4 8 11 5 16 -3 5 -8 29 -11 53 -5 39 -3 48 21 72 21 21 33 25 63
22 28 -4 44 0 65 19 31 25 43 28 51 14 9 -14 -4 -41 -20 -41 -8 0 -14 -4 -14
-10 0 -16 37 -12 55 7 12 11 15 25 11 48 -5 26 -1 36 24 60 l30 29 0 292 c0
257 2 293 16 298 9 3 108 6 220 6 l204 0 0 -422 c0 -233 1 -510 1 -616 0 -119
4 -192 10 -192 10 0 12 1153 2 1217 l-5 33 -222 2 -221 3 -3 318 -2 317 22 0
c22 0 23 2 23 107 0 80 3 108 13 107 6 -1 95 -2 197 -2 l185 -2 2 -187 2 -188
6 195 c3 107 5 196 5 197 0 3 -467 8 -470 5z m45 -112 c0 -85 -2 -100 -16
-100 -12 0 -15 6 -10 23 3 12 6 57 6 100 0 44 4 77 10 77 6 0 10 -40 10 -100z"/>
<path d="M2 1958 l2 -163 6 155 c3 85 8 154 13 153 4 -2 101 -3 217 -3 l210 0
0 -255 c0 -248 -1 -255 -20 -255 -19 0 -20 -7 -20 -120 0 -113 1 -120 20 -120
17 0 20 -7 20 -50 l0 -50 -222 -2 -223 -3 -3 -622 c-1 -343 1 -623 5 -623 5 0
7 277 6 615 l-1 615 219 0 219 0 0 -303 c0 -282 1 -305 18 -320 13 -12 17 -26
14 -46 -3 -20 2 -35 17 -50 12 -12 21 -32 21 -46 0 -59 47 -105 108 -105 22 0
31 -7 43 -32 15 -36 55 -56 85 -43 17 6 15 9 -10 16 -17 5 -44 23 -60 42 -18
19 -49 38 -73 45 -43 13 -73 49 -73 87 0 10 -8 30 -17 46 -25 43 -7 57 52 41
25 -7 54 -12 64 -12 29 0 68 -37 75 -72 7 -35 32 -68 52 -68 20 0 37 -39 30
-72 -3 -18 0 -41 9 -58 16 -31 5 -49 -15 -25 -7 8 -16 12 -21 9 -26 -16 14
-58 47 -50 29 8 30 3 3 -34 -21 -28 -21 -30 -5 -54 21 -33 28 -33 26 2 -4 49
-1 53 28 50 25 -3 27 -6 24 -44 -1 -32 3 -47 23 -68 32 -34 31 -36 -5 -36 -22
0 -30 -5 -30 -17 0 -15 2 -16 10 -3 7 12 18 12 68 2 81 -17 954 -17 1052 0 61
11 73 10 80 -2 8 -13 10 -12 10 3 0 13 -9 17 -42 17 -24 0 -276 0 -561 0
l-518 0 -35 37 c-24 25 -31 40 -24 47 5 5 10 25 10 42 0 35 -29 64 -63 64 -11
0 -18 7 -16 18 3 37 -2 51 -21 57 -16 5 -18 10 -10 25 27 50 0 112 -53 125
-18 5 -23 12 -20 28 9 54 -75 125 -132 111 -17 -4 -32 -1 -45 11 -13 12 -27
15 -47 11 -21 -5 -31 -2 -40 13 -9 14 -12 208 -14 760 l-2 741 -234 0 -233 0
2 -162z m448 -488 c0 -82 -3 -100 -15 -100 -12 0 -15 18 -15 100 0 82 3 100
15 100 12 0 15 -18 15 -100z"/>
<path d="M41 1733 c0 -21 3 -31 6 -23 3 8 12 19 19 23 21 12 17 37 -6 37 -17
0 -20 -6 -19 -37z"/>
<path d="M102 1745 c-16 -34 -15 -40 3 -25 10 9 15 9 15 1 0 -6 4 -11 8 -11 5
0 7 14 4 30 -5 37 -15 38 -30 5z"/>
<path d="M150 1743 c0 -21 5 -29 18 -29 24 0 24 49 0 54 -14 3 -18 -3 -18 -25z"/>
<path d="M201 1735 c0 -22 3 -34 6 -27 2 6 10 9 16 5 7 -4 29 -8 49 -8 31 0
37 3 41 25 3 14 3 28 0 32 -7 12 -81 9 -89 -3 -4 -8 -9 -7 -15 2 -6 9 -8 0 -8
-26z m59 7 c0 -26 -11 -34 -27 -21 -10 9 -10 15 -2 25 16 19 29 17 29 -4z"/>
<path d="M340 1752 c0 -14 -4 -21 -11 -16 -7 4 -6 -3 2 -17 8 -15 14 -19 17
-11 3 10 7 10 18 1 11 -9 18 -9 29 1 19 16 19 30 -1 30 -8 0 -12 -4 -9 -10 3
-5 1 -10 -4 -10 -20 0 -11 31 12 40 22 9 22 9 0 9 -12 1 -24 -5 -26 -11 -4
-10 -8 -9 -16 2 -9 12 -11 11 -11 -8z"/>
<path d="M2571 1733 c0 -21 3 -31 6 -23 3 8 12 19 19 23 21 12 17 37 -6 37
-17 0 -20 -6 -19 -37z"/>
<path d="M2637 1750 c-9 -13 -17 -31 -17 -40 1 -11 3 -10 12 4 11 19 11 19 24
1 15 -21 17 -8 5 35 l-7 24 -17 -24z"/>
<path d="M2680 1743 c0 -21 5 -29 18 -29 25 0 24 49 0 54 -14 3 -18 -3 -18
-25z"/>
<path d="M2731 1733 c0 -21 3 -32 6 -25 2 6 10 9 16 5 7 -4 29 -8 50 -8 31 0
37 3 37 20 1 18 2 18 13 4 14 -18 53 -30 73 -22 20 7 17 33 -3 33 -15 0 -16
-2 -3 -10 13 -8 12 -10 -2 -10 -10 0 -18 6 -18 14 0 7 -8 20 -17 27 -15 13
-16 12 -11 -8 4 -13 3 -23 -2 -23 -4 0 -15 10 -23 23 l-16 22 0 -27 c-1 -18
-6 -28 -16 -28 -18 0 -20 36 -2 43 6 3 -2 6 -18 6 -17 1 -37 -5 -44 -11 -11
-10 -13 -10 -7 0 4 6 2 12 -3 12 -6 0 -11 -17 -10 -37z m59 9 c0 -26 -11 -34
-27 -21 -10 9 -10 15 -2 25 16 19 29 17 29 -4z"/>
<path d="M2984 1495 c0 -126 2 -177 3 -112 2 65 2 168 0 230 -1 62 -3 9 -3
-118z"/>
<path d="M3 1595 c0 -33 2 -45 4 -27 2 18 2 45 0 60 -2 15 -4 0 -4 -33z"/>
<path d="M187 1643 c-4 -3 -7 -17 -7 -30 0 -15 -6 -23 -17 -23 -13 0 -14 -3
-5 -12 15 -15 42 7 42 34 0 10 5 16 10 13 6 -3 10 1 10 9 0 16 -21 22 -33 9z"/>
<path d="M250 1611 c0 -20 -6 -31 -17 -34 -17 -4 -17 -4 1 -12 12 -5 21 -3 27
6 12 19 11 69 -1 69 -5 0 -10 -13 -10 -29z"/>
<path d="M2716 1625 c-9 -25 -7 -163 3 -169 5 -3 11 33 13 82 4 84 -3 121 -16
87z"/>
<path d="M2870 1627 c0 -14 -6 -16 -40 -11 -39 6 -40 6 -40 -22 1 -26 2 -27
14 -11 10 13 21 15 44 11 24 -5 33 -2 38 10 4 10 2 22 -5 29 -8 8 -11 7 -11
-6z"/>
<path d="M2660 1570 c-13 -9 -13 -11 -1 -19 10 -7 12 -21 7 -57 -4 -30 -3 -44
3 -39 10 10 20 125 11 125 -3 0 -12 -5 -20 -10z"/>
<path d="M2858 1560 c6 -8 12 -33 12 -57 0 -37 -4 -44 -29 -57 -26 -14 -30
-14 -35 -1 -7 19 -40 19 -56 0 -7 -9 -21 -13 -31 -10 -22 7 -59 -2 -59 -15 0
-12 78 -6 92 8 16 16 38 15 58 -3 14 -13 20 -12 48 5 28 17 32 25 32 63 0 33
-5 48 -22 63 -13 10 -17 12 -10 4z"/>
<path d="M180 1531 c-11 -28 -8 -51 9 -51 4 0 6 14 3 30 -4 29 11 42 21 18 3
-7 6 -3 6 10 1 32 -24 27 -39 -7z"/>
<path d="M2797 1545 c-10 -9 -18 -11 -22 -5 -3 5 -11 10 -18 10 -6 0 -1 -10
11 -22 17 -17 24 -20 34 -10 17 17 28 15 28 -7 0 -11 -7 -21 -15 -23 -10 -2
-12 -7 -5 -18 15 -24 32 2 28 45 -3 43 -18 54 -41 30z"/>
<path d="M250 1520 c0 -23 -7 -33 -32 -46 -29 -15 -32 -15 -40 0 -5 9 -13 14
-19 11 -16 -11 -10 -20 20 -32 24 -9 35 -7 60 8 25 15 31 25 31 54 0 19 -4 35
-10 35 -5 0 -10 -13 -10 -30z"/>
<path d="M3 1355 c0 -33 2 -45 4 -27 2 18 2 45 0 60 -2 15 -4 0 -4 -33z"/>
<path d="M111 1075 c1 -28 4 -40 6 -27 4 22 5 23 18 5 12 -15 17 -16 34 -6 17
11 22 10 30 -5 14 -22 13 -6 0 42 -8 29 -13 36 -20 25 -5 -8 -9 -24 -9 -37 0
-32 -19 -23 -42 18 l-18 35 1 -50z"/>
<path d="M224 1100 c3 -14 6 -33 6 -42 0 -10 5 -18 10 -18 15 0 12 31 -6 60
l-15 25 5 -25z"/>
<path d="M270 1075 c0 -38 3 -45 20 -45 11 0 20 5 20 10 0 6 -7 10 -15 10 -18
0 -20 16 -2 23 10 4 10 6 0 6 -19 1 -15 29 5 34 13 4 11 5 -5 6 -21 1 -23 -4
-23 -44z"/>
<path d="M321 1073 c1 -26 4 -38 6 -25 4 21 6 22 16 8 10 -14 12 -10 12 21 0
28 -5 39 -18 41 -14 3 -17 -4 -16 -45z"/>
<path d="M2610 1074 c0 -26 4 -43 10 -39 5 3 7 13 4 23 -5 16 -5 16 9 0 21
-26 28 -22 15 7 -8 19 -8 28 2 40 8 10 9 15 1 15 -6 0 -11 -4 -11 -10 0 -5 -5
-10 -11 -10 -5 0 -7 5 -4 10 3 6 1 10 -4 10 -6 0 -11 -20 -11 -46z"/>
<path d="M2671 1077 c0 -23 3 -36 6 -28 3 8 8 9 12 3 5 -9 46 -16 79 -13 17 1
15 40 -3 47 -8 4 -15 11 -15 16 0 6 7 8 15 4 8 -3 15 -1 15 4 0 6 -9 10 -20
10 -13 0 -20 -7 -20 -20 0 -11 7 -20 15 -20 8 0 15 -7 15 -15 0 -26 -37 -17
-44 10 -4 14 -4 30 -2 34 3 4 -8 8 -24 9 -29 1 -30 -1 -29 -41z"/>
<path d="M2793 1080 c-1 -25 1 -37 4 -27 2 9 8 17 13 17 5 0 11 -8 13 -17 3
-10 5 2 4 27 0 25 -2 35 -4 23 -2 -13 -8 -23 -13 -23 -5 0 -11 10 -13 23 -2
12 -4 2 -4 -23z"/>
<path d="M2842 1080 c0 -25 2 -37 5 -27 5 18 5 18 19 0 12 -16 13 -13 12 27 0
27 -3 35 -5 20 l-5 -24 -14 24 c-13 24 -13 23 -12 -20z"/>
<path d="M2900 1103 c0 -10 -3 -29 -6 -43 -5 -20 -4 -22 6 -10 9 11 13 12 17
3 12 -30 19 -9 10 27 -11 41 -27 54 -27 23z"/>
<path d="M90 970 c0 -40 15 -55 23 -22 4 16 5 16 6 0 1 -20 21 -25 21 -6 0 7
6 4 13 -5 19 -25 39 -6 35 34 -3 31 -6 34 -35 36 -35 1 -43 -13 -20 -36 10
-10 9 -11 -5 -6 -10 4 -18 16 -18 26 0 10 -4 19 -10 19 -5 0 -10 -18 -10 -40z
m90 -6 c0 -13 -4 -24 -9 -24 -13 0 -24 37 -16 50 10 16 25 1 25 -26z"/>
<path d="M204 998 c-4 -6 0 -16 9 -23 22 -16 22 -35 0 -35 -13 0 -14 -3 -5
-12 8 -8 15 -8 27 2 19 16 19 39 0 46 -8 4 -15 10 -15 16 0 5 5 6 10 3 6 -3
10 -1 10 4 0 15 -27 14 -36 -1z"/>
<path d="M257 1002 c6 -4 13 -25 15 -47 l3 -40 5 48 c5 42 3 47 -15 47 -13 0
-16 -3 -8 -8z"/>
<path d="M300 970 c0 -27 5 -43 15 -47 22 -8 33 6 15 18 -13 8 -13 10 0 19 10
6 11 10 3 10 -7 0 -13 6 -13 14 0 8 6 17 13 19 6 3 2 6 -10 6 -20 1 -23 -4
-23 -39z"/>
<path d="M352 968 c-2 -42 1 -48 18 -48 11 0 20 5 20 10 0 6 -6 10 -14 10 -10
0 -16 13 -19 38 -3 34 -4 33 -5 -10z"/>
<path d="M2620 970 c0 -22 5 -40 10 -40 6 0 10 7 10 15 0 21 20 19 21 -2 0
-15 2 -15 9 2 7 17 9 17 9 3 1 -11 9 -18 21 -18 17 0 20 7 20 40 0 33 -3 40
-20 40 -11 0 -20 -6 -20 -12 0 -9 -4 -8 -10 2 -8 12 -10 11 -10 -7 0 -13 -4
-23 -10 -23 -5 0 -10 9 -10 20 0 11 -4 20 -10 20 -5 0 -10 -18 -10 -40z m90 0
c0 -16 -4 -30 -10 -30 -5 0 -10 14 -10 30 0 17 5 30 10 30 6 0 10 -13 10 -30z"/>
<path d="M2734 999 c-4 -7 4 -20 17 -30 l24 -19 -23 -6 c-17 -5 -20 -9 -11
-15 15 -9 39 7 39 27 0 7 -8 18 -17 23 -16 9 -16 12 -3 21 13 8 13 10 -2 10
-9 0 -20 -5 -24 -11z"/>
<path d="M2800 963 l5 -48 3 43 c4 50 22 57 22 9 0 -39 6 -48 27 -40 12 5 12
7 1 14 -11 7 -10 11 2 19 10 6 11 10 3 10 -7 0 -13 6 -13 14 0 8 6 17 13 19 6
3 -6 6 -28 6 l-40 1 5 -47z"/>
<path d="M2880 970 c0 -37 2 -40 28 -39 24 2 24 2 4 6 -20 4 -22 9 -16 39 4
22 2 34 -5 34 -6 0 -11 -17 -11 -40z"/>
<path d="M197 863 c-4 -3 -7 -17 -7 -30 0 -14 -6 -23 -16 -23 -8 0 -12 -4 -9
-10 3 -5 15 -10 26 -10 15 0 19 7 19 31 0 24 4 30 15 25 9 -3 15 0 15 9 0 15
-31 21 -43 8z"/>
<path d="M270 826 c0 -35 -4 -46 -18 -50 -21 -7 -68 -53 -61 -60 2 -3 25 9 52
27 44 29 47 33 47 73 0 24 -4 46 -10 49 -6 4 -10 -11 -10 -39z"/>
<path d="M2710 765 c0 -43 4 -75 10 -75 6 0 10 32 10 75 0 43 -4 75 -10 75 -6
0 -10 -32 -10 -75z"/>
<path d="M2786 814 c-9 -24 -7 -54 4 -54 9 0 13 13 8 26 -2 3 5 10 15 15 9 6
15 14 12 20 -10 14 -32 11 -39 -7z"/>
<path d="M2855 803 c-4 -13 -15 -23 -24 -24 -11 0 -10 -3 7 -11 28 -14 35 -7
29 29 -4 27 -5 27 -12 6z"/>
<path d="M2670 789 c0 -5 -4 -7 -10 -4 -13 8 -13 -8 -1 -20 5 -6 11 -26 14
-45 3 -24 4 -17 5 23 1 31 0 57 -3 57 -3 0 -5 -5 -5 -11z"/>
<path d="M2792 747 c-13 -15 -5 -57 10 -57 6 0 8 6 5 14 -3 8 1 20 8 26 8 7
12 16 9 21 -7 13 -20 11 -32 -4z"/>
<path d="M2854 735 c-4 -8 -4 -21 -1 -29 7 -18 -32 -35 -66 -29 -35 7 -35 -5
0 -18 19 -7 35 -6 55 2 24 10 28 17 28 50 0 40 -6 50 -16 24z"/>
<path d="M275 700 c-4 -6 -15 -8 -26 -5 -23 8 -79 -3 -79 -15 0 -10 101 -7
118 3 14 10 16 27 3 27 -6 0 -13 -5 -16 -10z"/>
<path d="M2665 660 c-4 -6 10 -10 34 -10 22 0 43 5 46 10 4 6 -10 10 -34 10
-22 0 -43 -4 -46 -10z"/>
<path d="M2404 430 c-7 -41 -44 -80 -77 -80 -15 0 -87 -63 -87 -76 0 -4 -10
-18 -22 -31 -25 -27 -19 -40 12 -23 11 6 23 24 27 41 3 16 12 29 19 29 7 0 18
9 24 20 7 12 21 20 38 20 47 1 92 51 92 104 0 42 -19 40 -26 -4z"/>
<path d="M2143 358 c-27 -13 -47 -59 -38 -87 5 -18 2 -21 -25 -21 -23 0 -42
-10 -66 -34 -29 -29 -34 -41 -34 -79 0 -29 7 -53 19 -68 25 -32 36 -19 21 25
-18 55 0 97 53 121 27 13 47 31 55 50 24 56 29 60 71 63 45 3 49 8 24 28 -21
16 -50 17 -80 2z"/>
<path d="M1250 195 c0 -44 1 -45 29 -43 23 2 30 8 35 30 8 40 0 53 -34 56 -29
2 -30 1 -30 -43z m44 20 c3 -8 2 -24 -2 -35 -5 -14 -11 -17 -22 -10 -13 9 -13
11 0 20 10 6 11 10 3 10 -7 0 -13 7 -13 15 0 19 26 19 34 0z"/>
<path d="M1327 203 c-4 -21 -2 -42 3 -47 7 -7 10 7 10 37 0 57 -5 60 -13 10z"/>
<path d="M1360 193 l5 -48 3 40 c2 22 9 43 15 47 8 5 5 8 -8 8 -18 0 -20 -5
-15 -47z"/>
<path d="M1400 226 c0 -7 -3 -28 -6 -45 -4 -20 -3 -31 5 -31 6 0 11 8 12 18 0
14 2 14 9 -3 8 -19 9 -19 9 2 1 12 -3 25 -9 28 -5 3 -10 12 -10 18 0 8 3 8 9
-2 6 -9 11 -10 15 -2 12 19 26 2 27 -32 l1 -32 7 35 c4 20 11 41 15 48 4 7 2
12 -3 12 -6 0 -11 -5 -11 -11 0 -8 -5 -8 -15 1 -12 10 -15 10 -15 -1 0 -10 -3
-10 -12 -1 -16 16 -28 15 -28 -2z"/>
<path d="M1524 226 c-3 -8 -4 -27 -2 -43 2 -20 8 -28 23 -28 11 0 21 8 23 18
2 10 -3 17 -13 17 -9 0 -13 -4 -10 -10 3 -5 1 -10 -4 -10 -20 0 -11 37 12 53
l22 16 -23 0 c-12 1 -25 -5 -28 -13z"/>
<path d="M1592 218 c3 -15 1 -25 -3 -22 -5 3 -9 -4 -9 -16 0 -13 4 -19 11 -14
6 3 16 0 21 -7 6 -9 7 -1 3 26 -4 22 -11 45 -17 50 -7 7 -9 2 -6 -17z"/>
<path d="M1640 225 c7 -8 10 -26 8 -40 -3 -14 -1 -28 3 -31 5 -3 9 13 9 35 0
23 5 41 10 41 6 0 10 -18 10 -40 0 -33 3 -40 20 -40 11 0 20 5 20 10 0 6 -7
10 -16 10 -13 0 -14 3 -5 14 9 11 9 15 -1 19 -10 4 -8 10 6 21 19 15 17 16
-28 16 -42 0 -47 -2 -36 -15z"/>
<path d="M2186 147 c3 -49 0 -57 -27 -83 -16 -15 -29 -32 -29 -36 0 -17 56 21
70 47 18 33 16 93 -3 112 -13 13 -14 8 -11 -40z"/>
<path d="M815 65 c-23 -22 -34 -65 -17 -65 4 0 17 20 29 45 25 51 22 55 -12
20z"/>
</g>
</svg>
