<svg width="1376" height="1258" viewBox="0 0 1376 1258" fill="none" xmlns="http://www.w3.org/2000/svg">
<rect width="1376" height="1258" fill="#1E1E1E"/>
<rect y="7" width="1376" height="1243" fill="#6F6A6A"/>
<rect width="1376" height="1258" fill="#FFFDFD"/>
<rect x="489" y="306" width="400" height="502" fill="#D9D9D9"/>
<rect x="401" y="34" width="533" height="118" fill="#D9D9D9"/>
<rect x="29" y="48" width="234" height="235" fill="#D9D9D9"/>
<rect x="29" y="398" width="234" height="317" fill="#D9D9D9"/>
<path d="M33 854H267L447 1250H33V854Z" fill="#D9D9D9"/>
<rect x="1121" y="48" width="214" height="209" fill="#D9D9D9" onclick="selectBuilding('IT')"/>
<rect x="1121" y="371" width="214" height="250" fill="#D9D9D9"/>
<path d="M1121 808H1335V1250H975L1121 808Z" fill="#D9D9D9"/>
<path d="M548.637 811.98C549.689 798.998 560.531 789 573.555 789H800.399C813.02 789 823.662 798.408 825.21 810.935L835.032 890.434C836.875 905.344 825.244 918.5 810.221 918.5H567.109C552.505 918.5 541.011 906.036 542.191 891.48L548.637 811.98Z" fill="#D9D9D9"/>
<path d="M578.5 38V158" stroke="#1F0101"/>
<line x1="762.5" y1="38" x2="762.5" y2="158" stroke="black"/>
<path d="M628.839 471H624.435C624.175 469.733 623.719 468.621 623.068 467.662C622.429 466.703 621.648 465.898 620.724 465.247C619.813 464.584 618.801 464.087 617.688 463.756C616.575 463.424 615.415 463.259 614.208 463.259C612.006 463.259 610.012 463.815 608.224 464.928C606.449 466.04 605.034 467.68 603.981 469.846C602.939 472.012 602.418 474.67 602.418 477.818C602.418 480.967 602.939 483.624 603.981 485.79C605.034 487.957 606.449 489.596 608.224 490.709C610.012 491.821 612.006 492.378 614.208 492.378C615.415 492.378 616.575 492.212 617.688 491.881C618.801 491.549 619.813 491.058 620.724 490.407C621.648 489.744 622.429 488.933 623.068 487.974C623.719 487.004 624.175 485.891 624.435 484.636H628.839C628.507 486.495 627.903 488.158 627.028 489.626C626.152 491.094 625.063 492.342 623.76 493.372C622.458 494.39 620.997 495.165 619.375 495.698C617.765 496.231 616.043 496.497 614.208 496.497C611.107 496.497 608.349 495.74 605.934 494.224C603.519 492.709 601.619 490.555 600.234 487.761C598.849 484.968 598.157 481.653 598.157 477.818C598.157 473.983 598.849 470.669 600.234 467.875C601.619 465.081 603.519 462.927 605.934 461.412C608.349 459.897 611.107 459.139 614.208 459.139C616.043 459.139 617.765 459.406 619.375 459.938C620.997 460.471 622.458 461.252 623.76 462.282C625.063 463.3 626.152 464.543 627.028 466.011C627.903 467.467 628.507 469.13 628.839 471ZM643.412 496.639C641.683 496.639 640.115 496.314 638.706 495.663C637.298 495 636.179 494.047 635.35 492.804C634.522 491.549 634.108 490.034 634.108 488.259C634.108 486.696 634.415 485.429 635.031 484.459C635.646 483.476 636.469 482.707 637.499 482.151C638.529 481.594 639.665 481.18 640.908 480.908C642.163 480.624 643.423 480.399 644.69 480.233C646.347 480.02 647.691 479.86 648.721 479.754C649.762 479.635 650.52 479.44 650.993 479.168C651.479 478.895 651.721 478.422 651.721 477.747V477.605C651.721 475.853 651.242 474.492 650.283 473.521C649.336 472.551 647.898 472.065 645.968 472.065C643.968 472.065 642.4 472.503 641.263 473.379C640.127 474.255 639.328 475.19 638.866 476.185L634.889 474.764C635.599 473.107 636.546 471.817 637.73 470.893C638.925 469.958 640.227 469.307 641.636 468.94C643.056 468.562 644.453 468.372 645.826 468.372C646.702 468.372 647.708 468.479 648.845 468.692C649.993 468.893 651.1 469.313 652.165 469.952C653.242 470.592 654.136 471.556 654.846 472.847C655.556 474.137 655.912 475.865 655.912 478.031V496H651.721V492.307H651.508C651.224 492.899 650.751 493.532 650.088 494.207C649.425 494.881 648.543 495.455 647.442 495.929C646.341 496.402 644.998 496.639 643.412 496.639ZM644.051 492.875C645.708 492.875 647.105 492.549 648.241 491.898C649.389 491.247 650.253 490.407 650.833 489.377C651.425 488.347 651.721 487.264 651.721 486.128V482.293C651.544 482.506 651.153 482.701 650.549 482.879C649.958 483.044 649.271 483.192 648.49 483.322C647.72 483.441 646.969 483.547 646.235 483.642C645.513 483.725 644.927 483.796 644.477 483.855C643.388 483.997 642.37 484.228 641.423 484.548C640.488 484.855 639.73 485.323 639.15 485.95C638.582 486.566 638.298 487.406 638.298 488.472C638.298 489.928 638.837 491.028 639.914 491.774C641.003 492.508 642.382 492.875 644.051 492.875ZM663.56 496V468.727H667.608V472.989H667.963C668.531 471.533 669.449 470.402 670.715 469.597C671.982 468.781 673.503 468.372 675.279 468.372C677.078 468.372 678.575 468.781 679.771 469.597C680.978 470.402 681.919 471.533 682.594 472.989H682.878C683.576 471.58 684.624 470.461 686.021 469.633C687.418 468.792 689.093 468.372 691.046 468.372C693.484 468.372 695.479 469.136 697.029 470.663C698.58 472.178 699.355 474.539 699.355 477.747V496H695.165V477.747C695.165 475.735 694.615 474.297 693.514 473.433C692.413 472.568 691.117 472.136 689.625 472.136C687.708 472.136 686.222 472.716 685.169 473.876C684.115 475.025 683.588 476.481 683.588 478.244V496H679.327V477.321C679.327 475.77 678.824 474.522 677.818 473.575C676.811 472.616 675.515 472.136 673.929 472.136C672.84 472.136 671.822 472.426 670.875 473.006C669.94 473.586 669.182 474.391 668.602 475.421C668.034 476.439 667.75 477.617 667.75 478.955V496H663.56ZM707.017 506.227V468.727H711.065V473.06H711.562C711.87 472.586 712.296 471.982 712.841 471.249C713.397 470.503 714.19 469.84 715.22 469.26C716.262 468.668 717.67 468.372 719.446 468.372C721.742 468.372 723.766 468.946 725.518 470.094C727.27 471.243 728.637 472.87 729.62 474.977C730.602 477.084 731.094 479.57 731.094 482.435C731.094 485.323 730.602 487.826 729.62 489.945C728.637 492.052 727.276 493.686 725.536 494.846C723.796 495.994 721.79 496.568 719.517 496.568C717.765 496.568 716.362 496.278 715.309 495.698C714.255 495.106 713.444 494.437 712.876 493.692C712.308 492.934 711.87 492.307 711.562 491.81H711.207V506.227H707.017ZM711.136 482.364C711.136 484.423 711.438 486.24 712.042 487.815C712.645 489.377 713.527 490.602 714.687 491.49C715.847 492.366 717.268 492.804 718.949 492.804C720.701 492.804 722.162 492.342 723.334 491.419C724.518 490.484 725.406 489.229 725.998 487.655C726.601 486.069 726.903 484.305 726.903 482.364C726.903 480.446 726.607 478.718 726.015 477.179C725.435 475.628 724.554 474.403 723.37 473.504C722.198 472.592 720.724 472.136 718.949 472.136C717.244 472.136 715.812 472.568 714.652 473.433C713.492 474.285 712.616 475.48 712.024 477.019C711.432 478.546 711.136 480.328 711.136 482.364ZM754.673 484.849V468.727H758.863V496H754.673V491.384H754.389C753.75 492.768 752.756 493.946 751.406 494.917C750.057 495.876 748.352 496.355 746.292 496.355C744.588 496.355 743.073 495.982 741.747 495.237C740.421 494.479 739.38 493.343 738.622 491.827C737.864 490.3 737.486 488.377 737.486 486.057V468.727H741.676V485.773C741.676 487.761 742.232 489.348 743.345 490.531C744.47 491.715 745.902 492.307 747.642 492.307C748.684 492.307 749.743 492.04 750.82 491.508C751.909 490.975 752.821 490.158 753.555 489.058C754.3 487.957 754.673 486.554 754.673 484.849ZM785.857 474.835L782.092 475.901C781.856 475.273 781.506 474.664 781.045 474.072C780.595 473.468 779.979 472.971 779.198 472.58C778.417 472.19 777.417 471.994 776.197 471.994C774.528 471.994 773.138 472.379 772.025 473.148C770.924 473.906 770.374 474.871 770.374 476.043C770.374 477.084 770.752 477.907 771.51 478.511C772.268 479.114 773.451 479.617 775.061 480.02L779.109 481.014C781.548 481.606 783.365 482.512 784.56 483.731C785.756 484.938 786.354 486.495 786.354 488.401C786.354 489.963 785.904 491.36 785.004 492.591C784.116 493.822 782.874 494.793 781.276 495.503C779.678 496.213 777.819 496.568 775.7 496.568C772.919 496.568 770.616 495.964 768.793 494.757C766.97 493.55 765.816 491.786 765.331 489.466L769.308 488.472C769.687 489.939 770.403 491.04 771.457 491.774C772.522 492.508 773.913 492.875 775.629 492.875C777.582 492.875 779.133 492.461 780.281 491.632C781.441 490.792 782.021 489.786 782.021 488.614C782.021 487.667 781.69 486.874 781.027 486.234C780.364 485.583 779.346 485.098 777.973 484.778L773.428 483.713C770.93 483.121 769.095 482.204 767.923 480.961C766.763 479.706 766.183 478.138 766.183 476.256C766.183 474.717 766.615 473.356 767.479 472.172C768.355 470.988 769.545 470.059 771.048 469.384C772.563 468.71 774.28 468.372 776.197 468.372C778.896 468.372 781.015 468.964 782.554 470.148C784.105 471.331 785.205 472.894 785.857 474.835ZM634.201 532C633.81 530.804 633.295 529.733 632.656 528.786C632.029 527.827 631.277 527.011 630.401 526.336C629.537 525.661 628.555 525.146 627.454 524.791C626.353 524.436 625.145 524.259 623.831 524.259C621.677 524.259 619.718 524.815 617.954 525.928C616.191 527.04 614.788 528.68 613.746 530.846C612.705 533.012 612.184 535.67 612.184 538.818C612.184 541.967 612.711 544.624 613.764 546.79C614.818 548.957 616.244 550.596 618.043 551.709C619.842 552.821 621.867 553.378 624.116 553.378C626.199 553.378 628.034 552.934 629.62 552.046C631.218 551.147 632.461 549.88 633.349 548.246C634.248 546.601 634.698 544.666 634.698 542.44L636.047 542.724H625.11V538.818H638.959V542.724C638.959 545.719 638.32 548.323 637.042 550.537C635.775 552.75 634.023 554.467 631.786 555.686C629.561 556.893 627.004 557.497 624.116 557.497C620.896 557.497 618.067 556.74 615.628 555.224C613.202 553.709 611.308 551.555 609.947 548.761C608.597 545.968 607.922 542.653 607.922 538.818C607.922 535.942 608.307 533.355 609.077 531.059C609.858 528.751 610.959 526.786 612.379 525.164C613.8 523.542 615.48 522.299 617.422 521.435C619.363 520.571 621.5 520.139 623.831 520.139C625.749 520.139 627.537 520.429 629.194 521.009C630.863 521.577 632.348 522.388 633.65 523.442C634.964 524.483 636.059 525.732 636.935 527.188C637.811 528.632 638.415 530.236 638.746 532H634.201ZM645.933 557V529.727H649.981V533.847H650.265C650.762 532.497 651.662 531.402 652.964 530.562C654.266 529.721 655.734 529.301 657.368 529.301C657.675 529.301 658.06 529.307 658.522 529.319C658.983 529.331 659.333 529.348 659.569 529.372V533.634C659.427 533.598 659.102 533.545 658.593 533.474C658.096 533.391 657.569 533.349 657.012 533.349C655.687 533.349 654.503 533.628 653.461 534.184C652.431 534.728 651.615 535.486 651.011 536.457C650.419 537.415 650.123 538.51 650.123 539.741V557H645.933ZM674.786 557.568C672.324 557.568 670.163 556.982 668.305 555.81C666.458 554.638 665.014 552.999 663.973 550.892C662.943 548.785 662.428 546.323 662.428 543.506C662.428 540.665 662.943 538.185 663.973 536.066C665.014 533.947 666.458 532.302 668.305 531.13C670.163 529.958 672.324 529.372 674.786 529.372C677.248 529.372 679.402 529.958 681.249 531.13C683.107 532.302 684.551 533.947 685.581 536.066C686.623 538.185 687.144 540.665 687.144 543.506C687.144 546.323 686.623 548.785 685.581 550.892C684.551 552.999 683.107 554.638 681.249 555.81C679.402 556.982 677.248 557.568 674.786 557.568ZM674.786 553.804C676.656 553.804 678.195 553.325 679.402 552.366C680.61 551.407 681.503 550.146 682.083 548.584C682.663 547.021 682.953 545.329 682.953 543.506C682.953 541.683 682.663 539.984 682.083 538.41C681.503 536.835 680.61 535.563 679.402 534.592C678.195 533.622 676.656 533.136 674.786 533.136C672.916 533.136 671.377 533.622 670.169 534.592C668.962 535.563 668.068 536.835 667.488 538.41C666.908 539.984 666.618 541.683 666.618 543.506C666.618 545.329 666.908 547.021 667.488 548.584C668.068 550.146 668.962 551.407 670.169 552.366C671.377 553.325 672.916 553.804 674.786 553.804ZM710.728 545.849V529.727H714.918V557H710.728V552.384H710.444C709.805 553.768 708.81 554.946 707.461 555.917C706.111 556.876 704.407 557.355 702.347 557.355C700.643 557.355 699.127 556.982 697.802 556.237C696.476 555.479 695.434 554.343 694.677 552.827C693.919 551.3 693.54 549.377 693.54 547.057V529.727H697.731V546.773C697.731 548.761 698.287 550.348 699.4 551.531C700.524 552.715 701.956 553.307 703.697 553.307C704.738 553.307 705.798 553.04 706.875 552.508C707.964 551.975 708.875 551.158 709.609 550.058C710.355 548.957 710.728 547.554 710.728 545.849ZM726.783 540.594V557H722.593V529.727H726.641V533.989H726.996C727.636 532.604 728.606 531.491 729.908 530.651C731.21 529.798 732.891 529.372 734.951 529.372C736.798 529.372 738.413 529.751 739.798 530.509C741.183 531.254 742.26 532.391 743.03 533.918C743.799 535.433 744.184 537.35 744.184 539.67V557H739.994V539.955C739.994 537.812 739.437 536.143 738.325 534.947C737.212 533.74 735.685 533.136 733.744 533.136C732.406 533.136 731.21 533.426 730.157 534.006C729.115 534.586 728.293 535.433 727.689 536.545C727.085 537.658 726.783 539.008 726.783 540.594ZM762.139 557.568C759.867 557.568 757.86 556.994 756.12 555.846C754.38 554.686 753.019 553.052 752.036 550.945C751.054 548.826 750.563 546.323 750.563 543.435C750.563 540.57 751.054 538.084 752.036 535.977C753.019 533.87 754.386 532.243 756.138 531.094C757.89 529.946 759.914 529.372 762.21 529.372C763.986 529.372 765.389 529.668 766.419 530.26C767.46 530.84 768.253 531.503 768.798 532.249C769.354 532.982 769.786 533.586 770.094 534.06H770.449V520.636H774.639V557H770.591V552.81H770.094C769.786 553.307 769.348 553.934 768.78 554.692C768.212 555.437 767.401 556.106 766.347 556.698C765.294 557.278 763.891 557.568 762.139 557.568ZM762.708 553.804C764.388 553.804 765.809 553.366 766.969 552.49C768.129 551.602 769.011 550.377 769.615 548.815C770.218 547.24 770.52 545.423 770.52 543.364C770.52 541.328 770.224 539.546 769.632 538.019C769.04 536.48 768.164 535.285 767.004 534.433C765.844 533.568 764.412 533.136 762.708 533.136C760.932 533.136 759.452 533.592 758.269 534.504C757.097 535.403 756.215 536.628 755.623 538.179C755.043 539.718 754.753 541.446 754.753 543.364C754.753 545.305 755.049 547.069 755.641 548.655C756.244 550.229 757.132 551.484 758.304 552.419C759.488 553.342 760.956 553.804 762.708 553.804Z" fill="#110202"/>
<path d="M75.1879 143H70.5714L83.9237 106.636H88.4691L101.821 143H97.2049L86.3384 112.389H86.0543L75.1879 143ZM76.8924 128.795H95.5004V132.702H76.8924V128.795ZM117.216 143.568C114.943 143.568 112.936 142.994 111.196 141.846C109.456 140.686 108.095 139.052 107.113 136.945C106.13 134.826 105.639 132.323 105.639 129.435C105.639 126.57 106.13 124.084 107.113 121.977C108.095 119.87 109.462 118.243 111.214 117.094C112.966 115.946 114.99 115.372 117.287 115.372C119.062 115.372 120.465 115.668 121.495 116.26C122.536 116.84 123.329 117.503 123.874 118.249C124.43 118.982 124.862 119.586 125.17 120.06H125.525V106.636H129.716V143H125.667V138.81H125.17C124.862 139.307 124.424 139.934 123.856 140.692C123.288 141.437 122.477 142.106 121.424 142.698C120.37 143.278 118.967 143.568 117.216 143.568ZM117.784 139.804C119.465 139.804 120.885 139.366 122.045 138.49C123.205 137.602 124.087 136.377 124.691 134.815C125.294 133.24 125.596 131.423 125.596 129.364C125.596 127.328 125.3 125.546 124.708 124.019C124.117 122.48 123.241 121.285 122.081 120.433C120.921 119.568 119.488 119.136 117.784 119.136C116.008 119.136 114.529 119.592 113.345 120.504C112.173 121.403 111.291 122.628 110.699 124.179C110.119 125.718 109.829 127.446 109.829 129.364C109.829 131.305 110.125 133.069 110.717 134.655C111.321 136.229 112.208 137.484 113.38 138.419C114.564 139.342 116.032 139.804 117.784 139.804ZM137.972 143V115.727H142.02V119.989H142.375C142.944 118.533 143.861 117.402 145.127 116.597C146.394 115.781 147.915 115.372 149.691 115.372C151.49 115.372 152.987 115.781 154.183 116.597C155.39 117.402 156.331 118.533 157.006 119.989H157.29C157.989 118.58 159.036 117.461 160.433 116.633C161.83 115.792 163.505 115.372 165.458 115.372C167.896 115.372 169.891 116.136 171.441 117.663C172.992 119.178 173.767 121.539 173.767 124.747V143H169.577V124.747C169.577 122.735 169.027 121.297 167.926 120.433C166.825 119.568 165.529 119.136 164.037 119.136C162.12 119.136 160.634 119.716 159.581 120.876C158.527 122.025 158 123.481 158 125.244V143H153.739V124.321C153.739 122.77 153.236 121.522 152.23 120.575C151.224 119.616 149.927 119.136 148.341 119.136C147.252 119.136 146.234 119.426 145.287 120.006C144.352 120.586 143.595 121.391 143.015 122.421C142.446 123.439 142.162 124.617 142.162 125.955V143H137.972ZM181.429 143V115.727H185.619V143H181.429ZM183.56 111.182C182.743 111.182 182.039 110.904 181.447 110.347C180.867 109.791 180.577 109.122 180.577 108.341C180.577 107.56 180.867 106.891 181.447 106.335C182.039 105.778 182.743 105.5 183.56 105.5C184.376 105.5 185.075 105.778 185.655 106.335C186.247 106.891 186.543 107.56 186.543 108.341C186.543 109.122 186.247 109.791 185.655 110.347C185.075 110.904 184.376 111.182 183.56 111.182ZM197.485 126.594V143H193.294V115.727H197.343V119.989H197.698C198.337 118.604 199.307 117.491 200.61 116.651C201.912 115.798 203.593 115.372 205.652 115.372C207.499 115.372 209.115 115.751 210.499 116.509C211.884 117.254 212.962 118.391 213.731 119.918C214.5 121.433 214.885 123.35 214.885 125.67V143H210.695V125.955C210.695 123.812 210.138 122.143 209.026 120.947C207.913 119.74 206.386 119.136 204.445 119.136C203.107 119.136 201.912 119.426 200.858 120.006C199.816 120.586 198.994 121.433 198.39 122.545C197.786 123.658 197.485 125.008 197.485 126.594ZM83.7306 204V167.636H96.4436C98.9768 167.636 101.066 168.074 102.711 168.95C104.357 169.814 105.582 170.98 106.387 172.448C107.192 173.904 107.594 175.52 107.594 177.295C107.594 178.858 107.316 180.148 106.76 181.166C106.215 182.184 105.493 182.989 104.593 183.581C103.706 184.173 102.741 184.611 101.699 184.895V185.25C102.812 185.321 103.931 185.712 105.055 186.422C106.18 187.132 107.121 188.15 107.878 189.476C108.636 190.802 109.015 192.423 109.015 194.341C109.015 196.164 108.6 197.803 107.772 199.259C106.943 200.715 105.635 201.869 103.848 202.722C102.06 203.574 99.7343 204 96.8698 204H83.7306ZM88.134 200.094H96.8698C99.7462 200.094 101.788 199.537 102.995 198.425C104.215 197.3 104.824 195.939 104.824 194.341C104.824 193.11 104.511 191.973 103.883 190.932C103.256 189.878 102.362 189.038 101.202 188.411C100.042 187.771 98.669 187.452 97.0828 187.452H88.134V200.094ZM88.134 183.616H96.3016C97.6273 183.616 98.8229 183.356 99.8882 182.835C100.965 182.314 101.818 181.58 102.445 180.634C103.084 179.687 103.404 178.574 103.404 177.295C103.404 175.697 102.848 174.342 101.735 173.229C100.622 172.105 98.8584 171.543 96.4436 171.543H88.134V183.616ZM119.872 167.636V204H115.682V167.636H119.872ZM138.627 204.568C136.165 204.568 134.004 203.982 132.146 202.81C130.299 201.638 128.855 199.999 127.813 197.892C126.784 195.785 126.269 193.323 126.269 190.506C126.269 187.665 126.784 185.185 127.813 183.066C128.855 180.947 130.299 179.302 132.146 178.13C134.004 176.958 136.165 176.372 138.627 176.372C141.089 176.372 143.243 176.958 145.09 178.13C146.948 179.302 148.392 180.947 149.422 183.066C150.464 185.185 150.985 187.665 150.985 190.506C150.985 193.323 150.464 195.785 149.422 197.892C148.392 199.999 146.948 201.638 145.09 202.81C143.243 203.982 141.089 204.568 138.627 204.568ZM138.627 200.804C140.497 200.804 142.036 200.325 143.243 199.366C144.451 198.407 145.344 197.146 145.924 195.584C146.504 194.021 146.794 192.329 146.794 190.506C146.794 188.683 146.504 186.984 145.924 185.41C145.344 183.835 144.451 182.563 143.243 181.592C142.036 180.622 140.497 180.136 138.627 180.136C136.756 180.136 135.218 180.622 134.01 181.592C132.803 182.563 131.909 183.835 131.329 185.41C130.749 186.984 130.459 188.683 130.459 190.506C130.459 192.329 130.749 194.021 131.329 195.584C131.909 197.146 132.803 198.407 134.01 199.366C135.218 200.325 136.756 200.804 138.627 200.804ZM168.461 204.568C165.904 204.568 163.702 203.964 161.856 202.757C160.009 201.55 158.589 199.887 157.594 197.768C156.6 195.649 156.103 193.228 156.103 190.506C156.103 187.736 156.612 185.291 157.63 183.173C158.66 181.042 160.092 179.379 161.927 178.183C163.773 176.976 165.928 176.372 168.39 176.372C170.307 176.372 172.035 176.727 173.574 177.438C175.113 178.148 176.374 179.142 177.356 180.42C178.339 181.699 178.948 183.19 179.185 184.895H174.995C174.675 183.652 173.965 182.551 172.864 181.592C171.775 180.622 170.307 180.136 168.461 180.136C166.827 180.136 165.395 180.562 164.164 181.415C162.945 182.255 161.992 183.445 161.305 184.984C160.63 186.511 160.293 188.304 160.293 190.364C160.293 192.471 160.624 194.305 161.287 195.868C161.962 197.43 162.909 198.644 164.128 199.508C165.359 200.372 166.803 200.804 168.461 200.804C169.55 200.804 170.538 200.615 171.426 200.236C172.314 199.857 173.065 199.312 173.681 198.602C174.296 197.892 174.734 197.04 174.995 196.045H179.185C178.948 197.655 178.362 199.105 177.427 200.396C176.504 201.674 175.279 202.692 173.752 203.45C172.237 204.195 170.473 204.568 168.461 204.568ZM189.217 194.057L189.146 188.872H189.998L201.93 176.727H207.115L194.402 189.582H194.047L189.217 194.057ZM185.311 204V167.636H189.501V204H185.311ZM202.64 204L191.987 190.506L194.97 187.594L207.967 204H202.64Z" fill="#110202"/>
<path d="M436.927 107V83H439.833V104.422H450.99V107H436.927ZM455.115 107V89H457.88V107H455.115ZM456.521 86C455.982 86 455.517 85.8164 455.126 85.4492C454.744 85.082 454.552 84.6406 454.552 84.125C454.552 83.6094 454.744 83.168 455.126 82.8008C455.517 82.4336 455.982 82.25 456.521 82.25C457.06 82.25 457.521 82.4336 457.904 82.8008C458.294 83.168 458.49 83.6094 458.49 84.125C458.49 84.6406 458.294 85.082 457.904 85.4492C457.521 85.8164 457.06 86 456.521 86ZM463.321 107V83H466.086V91.8594H466.321C466.524 91.5469 466.805 91.1484 467.165 90.6641C467.532 90.1719 468.055 89.7344 468.735 89.3516C469.422 88.9609 470.352 88.7656 471.524 88.7656C473.04 88.7656 474.375 89.1445 475.532 89.9023C476.688 90.6602 477.59 91.7344 478.239 93.125C478.887 94.5156 479.211 96.1562 479.211 98.0469C479.211 99.9531 478.887 101.605 478.239 103.004C477.59 104.395 476.692 105.473 475.543 106.238C474.395 106.996 473.071 107.375 471.571 107.375C470.415 107.375 469.489 107.184 468.793 106.801C468.098 106.41 467.563 105.969 467.188 105.477C466.813 104.977 466.524 104.562 466.321 104.234H465.993V107H463.321ZM466.04 98C466.04 99.3594 466.239 100.559 466.637 101.598C467.036 102.629 467.618 103.437 468.383 104.023C469.149 104.602 470.086 104.891 471.196 104.891C472.352 104.891 473.317 104.586 474.09 103.977C474.872 103.359 475.458 102.531 475.848 101.492C476.247 100.445 476.446 99.2812 476.446 98C476.446 96.7344 476.25 95.5937 475.86 94.5781C475.477 93.5547 474.895 92.7461 474.114 92.1523C473.34 91.5508 472.368 91.25 471.196 91.25C470.071 91.25 469.125 91.5352 468.36 92.1055C467.594 92.668 467.016 93.457 466.625 94.4727C466.235 95.4805 466.04 96.6562 466.04 98ZM483.442 107V89H486.114V91.7187H486.301C486.629 90.8281 487.223 90.1055 488.083 89.5508C488.942 88.9961 489.911 88.7187 490.989 88.7187C491.192 88.7187 491.446 88.7227 491.75 88.7305C492.055 88.7383 492.286 88.75 492.442 88.7656V91.5781C492.348 91.5547 492.133 91.5195 491.797 91.4727C491.469 91.418 491.122 91.3906 490.754 91.3906C489.879 91.3906 489.098 91.5742 488.411 91.9414C487.731 92.3008 487.192 92.8008 486.793 93.4414C486.403 94.0742 486.208 94.7969 486.208 95.6094V107H483.442ZM501.017 107.422C499.876 107.422 498.841 107.207 497.912 106.777C496.982 106.34 496.244 105.711 495.697 104.891C495.15 104.063 494.876 103.062 494.876 101.891C494.876 100.859 495.08 100.023 495.486 99.3828C495.892 98.7344 496.435 98.2266 497.115 97.8594C497.794 97.4922 498.544 97.2187 499.365 97.0391C500.193 96.8516 501.025 96.7031 501.861 96.5938C502.955 96.4531 503.841 96.3477 504.521 96.2773C505.208 96.1992 505.708 96.0703 506.021 95.8906C506.341 95.7109 506.501 95.3984 506.501 94.9531V94.8594C506.501 93.7031 506.185 92.8047 505.552 92.1641C504.927 91.5234 503.978 91.2031 502.705 91.2031C501.384 91.2031 500.349 91.4922 499.599 92.0703C498.849 92.6484 498.322 93.2656 498.017 93.9219L495.392 92.9844C495.861 91.8906 496.486 91.0391 497.267 90.4297C498.056 89.8125 498.916 89.3828 499.845 89.1406C500.783 88.8906 501.705 88.7656 502.611 88.7656C503.189 88.7656 503.853 88.8359 504.603 88.9766C505.361 89.1094 506.091 89.3867 506.794 89.8086C507.505 90.2305 508.095 90.8672 508.564 91.7187C509.033 92.5703 509.267 93.7109 509.267 95.1406V107H506.501V104.562H506.361C506.173 104.953 505.861 105.371 505.423 105.816C504.986 106.262 504.404 106.641 503.677 106.953C502.951 107.266 502.064 107.422 501.017 107.422ZM501.439 104.938C502.533 104.938 503.455 104.723 504.205 104.293C504.962 103.863 505.533 103.309 505.916 102.629C506.306 101.949 506.501 101.234 506.501 100.484V97.9531C506.384 98.0937 506.126 98.2227 505.728 98.3398C505.337 98.4492 504.884 98.5469 504.369 98.6328C503.861 98.7109 503.365 98.7812 502.88 98.8437C502.404 98.8984 502.017 98.9453 501.72 98.9844C501.001 99.0781 500.33 99.2305 499.705 99.4414C499.087 99.6445 498.587 99.9531 498.205 100.367C497.83 100.773 497.642 101.328 497.642 102.031C497.642 102.992 497.998 103.719 498.708 104.211C499.427 104.695 500.337 104.938 501.439 104.938ZM514.315 107V89H516.987V91.7187H517.174C517.502 90.8281 518.096 90.1055 518.956 89.5508C519.815 88.9961 520.784 88.7187 521.862 88.7187C522.065 88.7187 522.319 88.7227 522.624 88.7305C522.928 88.7383 523.159 88.75 523.315 88.7656V91.5781C523.221 91.5547 523.006 91.5195 522.67 91.4727C522.342 91.418 521.995 91.3906 521.627 91.3906C520.752 91.3906 519.971 91.5742 519.284 91.9414C518.604 92.3008 518.065 92.8008 517.667 93.4414C517.276 94.0742 517.081 94.7969 517.081 95.6094V107H514.315ZM528.922 113.75C528.454 113.75 528.036 113.711 527.668 113.633C527.301 113.563 527.047 113.492 526.907 113.422L527.61 110.984C528.282 111.156 528.875 111.219 529.391 111.172C529.907 111.125 530.364 110.895 530.762 110.48C531.168 110.074 531.54 109.414 531.875 108.5L532.391 107.094L525.735 89H528.735L533.704 103.344H533.891L538.86 89H541.86L534.219 109.625C533.875 110.555 533.45 111.324 532.942 111.934C532.434 112.551 531.844 113.008 531.172 113.305C530.508 113.602 529.758 113.75 528.922 113.75Z" fill="#110202"/>
<path d="M611.944 73.5H609.39C609.239 72.7654 608.974 72.12 608.597 71.5639C608.226 71.0078 607.773 70.541 607.237 70.1634C606.709 69.7789 606.122 69.4905 605.476 69.2983C604.831 69.1061 604.158 69.0099 603.458 69.0099C602.181 69.0099 601.024 69.3326 599.987 69.978C598.957 70.6233 598.137 71.5742 597.526 72.8306C596.922 74.087 596.62 75.6283 596.62 77.4545C596.62 79.2808 596.922 80.8221 597.526 82.0785C598.137 83.3349 598.957 84.2857 599.987 84.9311C601.024 85.5765 602.181 85.8991 603.458 85.8991C604.158 85.8991 604.831 85.803 605.476 85.6108C606.122 85.4186 606.709 85.1336 607.237 84.756C607.773 84.3716 608.226 83.9013 608.597 83.3452C608.974 82.7822 609.239 82.1368 609.39 81.4091H611.944C611.751 82.487 611.401 83.4516 610.893 84.3029C610.385 85.1542 609.753 85.8786 608.998 86.4759C608.243 87.0663 607.395 87.516 606.455 87.8249C605.521 88.1339 604.522 88.2884 603.458 88.2884C601.659 88.2884 600.059 87.849 598.659 86.9702C597.258 86.0914 596.156 84.8419 595.353 83.2216C594.55 81.6013 594.148 79.679 594.148 77.4545C594.148 75.2301 594.55 73.3078 595.353 71.6875C596.156 70.0672 597.258 68.8177 598.659 67.9389C600.059 67.0601 601.659 66.6207 603.458 66.6207C604.522 66.6207 605.521 66.7752 606.455 67.0842C607.395 67.3931 608.243 67.8462 608.998 68.4435C609.753 69.034 610.385 69.7549 610.893 70.6062C611.401 71.4506 611.751 72.4152 611.944 73.5ZM622.167 88.3295C620.739 88.3295 619.486 87.9897 618.408 87.31C617.337 86.6303 616.5 85.6795 615.896 84.4574C615.298 83.2353 615 81.8073 615 80.1733C615 78.5256 615.298 77.0872 615.896 75.8583C616.5 74.6294 617.337 73.6751 618.408 72.9954C619.486 72.3157 620.739 71.9759 622.167 71.9759C623.595 71.9759 624.845 72.3157 625.916 72.9954C626.994 73.6751 627.831 74.6294 628.429 75.8583C629.033 77.0872 629.335 78.5256 629.335 80.1733C629.335 81.8073 629.033 83.2353 628.429 84.4574C627.831 85.6795 626.994 86.6303 625.916 87.31C624.845 87.9897 623.595 88.3295 622.167 88.3295ZM622.167 86.1463C623.252 86.1463 624.144 85.8683 624.845 85.3121C625.545 84.756 626.063 84.0249 626.4 83.1186C626.736 82.2124 626.904 81.2306 626.904 80.1733C626.904 79.116 626.736 78.1308 626.4 77.2177C626.063 76.3046 625.545 75.5665 624.845 75.0036C624.144 74.4406 623.252 74.1591 622.167 74.1591C621.082 74.1591 620.19 74.4406 619.49 75.0036C618.789 75.5665 618.271 76.3046 617.935 77.2177C617.598 78.1308 617.43 79.116 617.43 80.1733C617.43 81.2306 617.598 82.2124 617.935 83.1186C618.271 84.0249 618.789 84.756 619.49 85.3121C620.19 85.8683 621.082 86.1463 622.167 86.1463ZM633.045 88V72.1818H635.393V74.6534H635.599C635.928 73.8089 636.46 73.1533 637.195 72.6864C637.93 72.2127 638.812 71.9759 639.842 71.9759C640.885 71.9759 641.754 72.2127 642.447 72.6864C643.147 73.1533 643.693 73.8089 644.085 74.6534H644.249C644.654 73.8364 645.262 73.1876 646.072 72.707C646.882 72.2196 647.854 71.9759 648.987 71.9759C650.401 71.9759 651.558 72.4187 652.457 73.3043C653.356 74.1831 653.806 75.5528 653.806 77.4134V88H651.376V77.4134C651.376 76.2462 651.056 75.412 650.418 74.9109C649.779 74.4097 649.028 74.1591 648.163 74.1591C647.05 74.1591 646.189 74.4955 645.578 75.1683C644.967 75.8343 644.661 76.6787 644.661 77.7017V88H642.19V77.1662C642.19 76.2668 641.898 75.5425 641.314 74.9933C640.731 74.4371 639.979 74.1591 639.059 74.1591C638.427 74.1591 637.837 74.3273 637.288 74.6637C636.745 75.0001 636.306 75.467 635.969 76.0643C635.64 76.6547 635.475 77.3378 635.475 78.1136V88H633.045ZM658.25 93.9318V72.1818H660.598V74.6946H660.886C661.065 74.42 661.312 74.0698 661.628 73.6442C661.95 73.2116 662.41 72.8272 663.008 72.4908C663.612 72.1475 664.429 71.9759 665.459 71.9759C666.791 71.9759 667.965 72.3088 668.981 72.9748C669.997 73.6407 670.79 74.5848 671.36 75.8068C671.929 77.0289 672.214 78.4706 672.214 80.1321C672.214 81.8073 671.929 83.2594 671.36 84.4883C670.79 85.7103 670 86.6578 668.991 87.3306C667.982 87.9966 666.818 88.3295 665.5 88.3295C664.484 88.3295 663.67 88.1613 663.059 87.8249C662.448 87.4817 661.978 87.0937 661.648 86.6612C661.319 86.2218 661.065 85.858 660.886 85.5696H660.68V93.9318H658.25ZM660.639 80.0909C660.639 81.2855 660.814 82.3394 661.164 83.2525C661.514 84.1587 662.026 84.8693 662.699 85.3842C663.372 85.8923 664.195 86.1463 665.17 86.1463C666.186 86.1463 667.034 85.8786 667.714 85.343C668.401 84.8007 668.915 84.0729 669.259 83.1598C669.609 82.2398 669.784 81.2169 669.784 80.0909C669.784 78.9787 669.612 77.9763 669.269 77.0838C668.933 76.1844 668.421 75.4738 667.735 74.9521C667.055 74.4234 666.2 74.1591 665.17 74.1591C664.182 74.1591 663.351 74.4097 662.678 74.9109C662.005 75.4052 661.497 76.0986 661.154 76.9911C660.811 77.8768 660.639 78.91 660.639 80.0909ZM685.89 81.5327V72.1818H688.321V88H685.89V85.3224H685.726C685.355 86.1257 684.778 86.8088 683.996 87.3718C683.213 87.9279 682.224 88.206 681.03 88.206C680.041 88.206 679.162 87.9897 678.393 87.5572C677.624 87.1178 677.02 86.4587 676.581 85.5799C676.141 84.6942 675.922 83.5786 675.922 82.233V72.1818H678.352V82.0682C678.352 83.2216 678.675 84.1416 679.32 84.8281C679.972 85.5147 680.803 85.858 681.812 85.858C682.416 85.858 683.031 85.7035 683.656 85.3945C684.287 85.0856 684.816 84.6119 685.242 83.9734C685.674 83.3349 685.89 82.5213 685.89 81.5327ZM699.652 72.1818V74.2415H691.454V72.1818H699.652ZM693.843 68.392H696.274V83.4688C696.274 84.1553 696.373 84.6702 696.572 85.0135C696.778 85.3499 697.039 85.5765 697.355 85.6932C697.678 85.803 698.018 85.858 698.375 85.858C698.642 85.858 698.862 85.8442 699.034 85.8168C699.205 85.7824 699.343 85.755 699.446 85.7344L699.94 87.9176C699.775 87.9794 699.545 88.0412 699.25 88.103C698.955 88.1716 698.581 88.206 698.127 88.206C697.441 88.206 696.768 88.0584 696.109 87.7631C695.457 87.4679 694.914 87.0182 694.482 86.4141C694.056 85.8099 693.843 85.0478 693.843 84.1278V68.392ZM709.77 88.3295C708.245 88.3295 706.931 87.9931 705.825 87.3203C704.727 86.6406 703.879 85.6932 703.282 84.478C702.691 83.2559 702.396 81.8348 702.396 80.2145C702.396 78.5942 702.691 77.1662 703.282 75.9304C703.879 74.6877 704.71 73.7197 705.774 73.0263C706.845 72.326 708.094 71.9759 709.522 71.9759C710.346 71.9759 711.16 72.1132 711.963 72.3878C712.766 72.6624 713.498 73.1087 714.157 73.7266C714.816 74.3376 715.341 75.1477 715.732 76.157C716.124 77.1662 716.319 78.4089 716.319 79.8849V80.9148H704.126V78.8139H713.848C713.848 77.9214 713.669 77.125 713.312 76.4247C712.962 75.7244 712.461 75.1718 711.809 74.7667C711.163 74.3616 710.401 74.1591 709.522 74.1591C708.554 74.1591 707.717 74.3994 707.01 74.88C706.309 75.3537 705.77 75.9716 705.393 76.7337C705.015 77.4957 704.826 78.3127 704.826 79.1847V80.5852C704.826 81.7798 705.032 82.7925 705.444 83.6232C705.863 84.4471 706.443 85.0753 707.185 85.5078C707.926 85.9335 708.788 86.1463 709.77 86.1463C710.408 86.1463 710.985 86.0571 711.5 85.8786C712.022 85.6932 712.471 85.4186 712.849 85.0547C713.226 84.6839 713.518 84.224 713.724 83.6747L716.072 84.3338C715.825 85.1302 715.41 85.8305 714.826 86.4347C714.243 87.032 713.522 87.4988 712.663 87.8352C711.805 88.1648 710.841 88.3295 709.77 88.3295ZM720.016 88V72.1818H722.364V74.571H722.529C722.818 73.7884 723.339 73.1533 724.095 72.6658C724.85 72.1784 725.701 71.9347 726.649 71.9347C726.827 71.9347 727.05 71.9381 727.318 71.945C727.586 71.9518 727.788 71.9621 727.926 71.9759V74.4474C727.843 74.4268 727.654 74.396 727.359 74.3548C727.071 74.3067 726.765 74.2827 726.443 74.2827C725.674 74.2827 724.987 74.444 724.383 74.7667C723.786 75.0825 723.312 75.5219 722.962 76.0849C722.618 76.641 722.447 77.276 722.447 77.9901V88H720.016ZM633.694 108.5H631.14C630.989 107.765 630.724 107.12 630.347 106.564C629.976 106.008 629.523 105.541 628.987 105.163C628.459 104.779 627.872 104.491 627.226 104.298C626.581 104.106 625.908 104.01 625.208 104.01C623.931 104.01 622.774 104.333 621.737 104.978C620.707 105.623 619.887 106.574 619.276 107.831C618.672 109.087 618.37 110.628 618.37 112.455C618.37 114.281 618.672 115.822 619.276 117.078C619.887 118.335 620.707 119.286 621.737 119.931C622.774 120.576 623.931 120.899 625.208 120.899C625.908 120.899 626.581 120.803 627.226 120.611C627.872 120.419 628.459 120.134 628.987 119.756C629.523 119.372 629.976 118.901 630.347 118.345C630.724 117.782 630.989 117.137 631.14 116.409H633.694C633.501 117.487 633.151 118.452 632.643 119.303C632.135 120.154 631.503 120.879 630.748 121.476C629.993 122.066 629.145 122.516 628.205 122.825C627.271 123.134 626.272 123.288 625.208 123.288C623.409 123.288 621.809 122.849 620.409 121.97C619.008 121.091 617.906 119.842 617.103 118.222C616.3 116.601 615.898 114.679 615.898 112.455C615.898 110.23 616.3 108.308 617.103 106.688C617.906 105.067 619.008 103.818 620.409 102.939C621.809 102.06 623.409 101.621 625.208 101.621C626.272 101.621 627.271 101.775 628.205 102.084C629.145 102.393 629.993 102.846 630.748 103.444C631.503 104.034 632.135 104.755 632.643 105.606C633.151 106.451 633.501 107.415 633.694 108.5ZM644.123 123.33C642.599 123.33 641.284 122.993 640.179 122.32C639.08 121.641 638.233 120.693 637.635 119.478C637.045 118.256 636.75 116.835 636.75 115.214C636.75 113.594 637.045 112.166 637.635 110.93C638.233 109.688 639.063 108.72 640.127 108.026C641.198 107.326 642.448 106.976 643.876 106.976C644.7 106.976 645.513 107.113 646.317 107.388C647.12 107.662 647.851 108.109 648.51 108.727C649.169 109.338 649.695 110.148 650.086 111.157C650.477 112.166 650.673 113.409 650.673 114.885V115.915H638.48V113.814H648.201C648.201 112.921 648.023 112.125 647.666 111.425C647.316 110.724 646.814 110.172 646.162 109.767C645.517 109.362 644.755 109.159 643.876 109.159C642.908 109.159 642.07 109.399 641.363 109.88C640.663 110.354 640.124 110.972 639.746 111.734C639.369 112.496 639.18 113.313 639.18 114.185V115.585C639.18 116.78 639.386 117.792 639.798 118.623C640.217 119.447 640.797 120.075 641.538 120.508C642.28 120.933 643.141 121.146 644.123 121.146C644.762 121.146 645.338 121.057 645.853 120.879C646.375 120.693 646.825 120.419 647.202 120.055C647.58 119.684 647.872 119.224 648.078 118.675L650.426 119.334C650.179 120.13 649.763 120.83 649.18 121.435C648.596 122.032 647.875 122.499 647.017 122.835C646.159 123.165 645.194 123.33 644.123 123.33ZM656.8 113.484V123H654.37V107.182H656.718V109.653H656.924C657.295 108.85 657.858 108.205 658.613 107.717C659.368 107.223 660.343 106.976 661.538 106.976C662.609 106.976 663.546 107.196 664.349 107.635C665.152 108.067 665.777 108.727 666.223 109.612C666.67 110.491 666.893 111.603 666.893 112.949V123H664.462V113.114C664.462 111.871 664.14 110.903 663.494 110.21C662.849 109.509 661.963 109.159 660.837 109.159C660.061 109.159 659.368 109.327 658.757 109.664C658.153 110 657.676 110.491 657.326 111.136C656.975 111.782 656.8 112.564 656.8 113.484ZM678.213 107.182V109.241H670.016V107.182H678.213ZM672.405 103.392H674.835V118.469C674.835 119.155 674.935 119.67 675.134 120.013C675.34 120.35 675.601 120.576 675.917 120.693C676.239 120.803 676.579 120.858 676.936 120.858C677.204 120.858 677.424 120.844 677.595 120.817C677.767 120.782 677.904 120.755 678.007 120.734L678.501 122.918C678.337 122.979 678.107 123.041 677.811 123.103C677.516 123.172 677.142 123.206 676.689 123.206C676.002 123.206 675.33 123.058 674.67 122.763C674.018 122.468 673.476 122.018 673.043 121.414C672.618 120.81 672.405 120.048 672.405 119.128V103.392ZM681.869 123V107.182H684.217V109.571H684.382C684.67 108.788 685.192 108.153 685.947 107.666C686.702 107.178 687.554 106.935 688.501 106.935C688.68 106.935 688.903 106.938 689.17 106.945C689.438 106.952 689.641 106.962 689.778 106.976V109.447C689.696 109.427 689.507 109.396 689.212 109.355C688.923 109.307 688.618 109.283 688.295 109.283C687.526 109.283 686.84 109.444 686.235 109.767C685.638 110.083 685.164 110.522 684.814 111.085C684.471 111.641 684.299 112.276 684.299 112.99V123H681.869ZM698.81 123.33C697.286 123.33 695.971 122.993 694.865 122.32C693.767 121.641 692.919 120.693 692.322 119.478C691.731 118.256 691.436 116.835 691.436 115.214C691.436 113.594 691.731 112.166 692.322 110.93C692.919 109.688 693.75 108.72 694.814 108.026C695.885 107.326 697.134 106.976 698.562 106.976C699.386 106.976 700.2 107.113 701.003 107.388C701.806 107.662 702.538 108.109 703.197 108.727C703.856 109.338 704.381 110.148 704.772 111.157C705.164 112.166 705.359 113.409 705.359 114.885V115.915H693.166V113.814H702.888C702.888 112.921 702.709 112.125 702.352 111.425C702.002 110.724 701.501 110.172 700.849 109.767C700.203 109.362 699.441 109.159 698.562 109.159C697.594 109.159 696.757 109.399 696.05 109.88C695.349 110.354 694.81 110.972 694.433 111.734C694.055 112.496 693.866 113.313 693.866 114.185V115.585C693.866 116.78 694.072 117.792 694.484 118.623C694.903 119.447 695.483 120.075 696.225 120.508C696.966 120.933 697.828 121.146 698.81 121.146C699.448 121.146 700.025 121.057 700.54 120.879C701.062 120.693 701.511 120.419 701.889 120.055C702.266 119.684 702.558 119.224 702.764 118.675L705.112 119.334C704.865 120.13 704.45 120.83 703.866 121.435C703.283 122.032 702.562 122.499 701.703 122.835C700.845 123.165 699.881 123.33 698.81 123.33Z" fill="#110202"/>
<path d="M806.009 90.5H803.103C802.931 89.6641 802.63 88.9297 802.2 88.2969C801.778 87.6641 801.263 87.1328 800.653 86.7031C800.052 86.2656 799.384 85.9375 798.649 85.7187C797.915 85.5 797.149 85.3906 796.353 85.3906C794.899 85.3906 793.583 85.7578 792.403 86.4922C791.231 87.2266 790.298 88.3086 789.603 89.7383C788.915 91.168 788.571 92.9219 788.571 95C788.571 97.0781 788.915 98.832 789.603 100.262C790.298 101.691 791.231 102.773 792.403 103.508C793.583 104.242 794.899 104.609 796.353 104.609C797.149 104.609 797.915 104.5 798.649 104.281C799.384 104.062 800.052 103.738 800.653 103.309C801.263 102.871 801.778 102.336 802.2 101.703C802.63 101.062 802.931 100.328 803.103 99.5H806.009C805.79 100.727 805.392 101.824 804.813 102.793C804.235 103.762 803.517 104.586 802.657 105.266C801.798 105.937 800.833 106.449 799.763 106.801C798.7 107.152 797.563 107.328 796.353 107.328C794.306 107.328 792.485 106.828 790.892 105.828C789.298 104.828 788.044 103.406 787.13 101.562C786.216 99.7187 785.759 97.5312 785.759 95C785.759 92.4687 786.216 90.2812 787.13 88.4375C788.044 86.5938 789.298 85.1719 790.892 84.1719C792.485 83.1719 794.306 82.6719 796.353 82.6719C797.563 82.6719 798.7 82.8477 799.763 83.1992C800.833 83.5508 801.798 84.0664 802.657 84.7461C803.517 85.418 804.235 86.2383 804.813 87.207C805.392 88.168 805.79 89.2656 806.009 90.5ZM815.627 107.422C814.486 107.422 813.451 107.207 812.521 106.777C811.592 106.34 810.854 105.711 810.307 104.891C809.76 104.063 809.486 103.062 809.486 101.891C809.486 100.859 809.689 100.023 810.096 99.3828C810.502 98.7344 811.045 98.2266 811.725 97.8594C812.404 97.4922 813.154 97.2187 813.975 97.0391C814.803 96.8516 815.635 96.7031 816.471 96.5938C817.564 96.4531 818.451 96.3477 819.131 96.2773C819.818 96.1992 820.318 96.0703 820.631 95.8906C820.951 95.7109 821.111 95.3984 821.111 94.9531V94.8594C821.111 93.7031 820.795 92.8047 820.162 92.1641C819.537 91.5234 818.588 91.2031 817.314 91.2031C815.994 91.2031 814.959 91.4922 814.209 92.0703C813.459 92.6484 812.932 93.2656 812.627 93.9219L810.002 92.9844C810.471 91.8906 811.096 91.0391 811.877 90.4297C812.666 89.8125 813.525 89.3828 814.455 89.1406C815.393 88.8906 816.314 88.7656 817.221 88.7656C817.799 88.7656 818.463 88.8359 819.213 88.9766C819.971 89.1094 820.701 89.3867 821.404 89.8086C822.115 90.2305 822.705 90.8672 823.174 91.7187C823.643 92.5703 823.877 93.7109 823.877 95.1406V107H821.111V104.562H820.971C820.783 104.953 820.471 105.371 820.033 105.816C819.596 106.262 819.014 106.641 818.287 106.953C817.561 107.266 816.674 107.422 815.627 107.422ZM816.049 104.938C817.143 104.938 818.064 104.723 818.814 104.293C819.572 103.863 820.143 103.309 820.525 102.629C820.916 101.949 821.111 101.234 821.111 100.484V97.9531C820.994 98.0937 820.736 98.2227 820.338 98.3398C819.947 98.4492 819.494 98.5469 818.979 98.6328C818.471 98.7109 817.975 98.7812 817.49 98.8437C817.014 98.8984 816.627 98.9453 816.33 98.9844C815.611 99.0781 814.939 99.2305 814.314 99.4414C813.697 99.6445 813.197 99.9531 812.814 100.367C812.439 100.773 812.252 101.328 812.252 102.031C812.252 102.992 812.607 103.719 813.318 104.211C814.037 104.695 814.947 104.938 816.049 104.938ZM831.69 96.1719V107H828.925V89H831.597V91.8125H831.831C832.253 90.8984 832.894 90.1641 833.753 89.6094C834.612 89.0469 835.722 88.7656 837.081 88.7656C838.3 88.7656 839.366 89.0156 840.28 89.5156C841.194 90.0078 841.905 90.7578 842.413 91.7656C842.921 92.7656 843.175 94.0312 843.175 95.5625V107H840.409V95.75C840.409 94.3359 840.042 93.2344 839.308 92.4453C838.573 91.6484 837.565 91.25 836.284 91.25C835.401 91.25 834.612 91.4414 833.917 91.8242C833.229 92.207 832.687 92.7656 832.288 93.5C831.89 94.2344 831.69 95.125 831.69 96.1719ZM856.057 89V91.3437H846.729V89H856.057ZM849.447 84.6875H852.213V101.844C852.213 102.625 852.326 103.211 852.553 103.602C852.787 103.984 853.084 104.242 853.443 104.375C853.811 104.5 854.197 104.562 854.604 104.562C854.908 104.562 855.158 104.547 855.354 104.516C855.549 104.477 855.705 104.445 855.822 104.422L856.385 106.906C856.197 106.977 855.936 107.047 855.6 107.117C855.264 107.195 854.838 107.234 854.322 107.234C853.541 107.234 852.775 107.066 852.025 106.73C851.283 106.395 850.666 105.883 850.174 105.195C849.689 104.508 849.447 103.641 849.447 102.594V84.6875ZM867.57 107.375C865.836 107.375 864.34 106.992 863.082 106.227C861.832 105.453 860.867 104.375 860.188 102.992C859.516 101.602 859.18 99.9844 859.18 98.1406C859.18 96.2969 859.516 94.6719 860.188 93.2656C860.867 91.8516 861.813 90.75 863.023 89.9609C864.242 89.1641 865.664 88.7656 867.289 88.7656C868.227 88.7656 869.152 88.9219 870.066 89.2344C870.98 89.5469 871.813 90.0547 872.563 90.7578C873.313 91.4531 873.91 92.375 874.355 93.5234C874.801 94.6719 875.023 96.0859 875.023 97.7656V98.9375H861.148V96.5469H872.211C872.211 95.5312 872.008 94.625 871.602 93.8281C871.203 93.0312 870.633 92.4023 869.891 91.9414C869.156 91.4805 868.289 91.25 867.289 91.25C866.188 91.25 865.234 91.5234 864.43 92.0703C863.633 92.6094 863.02 93.3125 862.59 94.1797C862.16 95.0469 861.945 95.9766 861.945 96.9687V98.5625C861.945 99.9219 862.18 101.074 862.648 102.02C863.125 102.957 863.785 103.672 864.629 104.164C865.473 104.648 866.453 104.891 867.57 104.891C868.297 104.891 868.953 104.789 869.539 104.586C870.133 104.375 870.645 104.063 871.074 103.648C871.504 103.227 871.836 102.703 872.07 102.078L874.742 102.828C874.461 103.734 873.988 104.531 873.324 105.219C872.66 105.898 871.84 106.43 870.863 106.812C869.887 107.188 868.789 107.375 867.57 107.375ZM886.777 107.375C885.043 107.375 883.547 106.992 882.289 106.227C881.039 105.453 880.074 104.375 879.395 102.992C878.723 101.602 878.387 99.9844 878.387 98.1406C878.387 96.2969 878.723 94.6719 879.395 93.2656C880.074 91.8516 881.02 90.75 882.23 89.9609C883.449 89.1641 884.871 88.7656 886.496 88.7656C887.434 88.7656 888.359 88.9219 889.273 89.2344C890.188 89.5469 891.02 90.0547 891.77 90.7578C892.52 91.4531 893.117 92.375 893.563 93.5234C894.008 94.6719 894.23 96.0859 894.23 97.7656V98.9375H880.355V96.5469H891.418C891.418 95.5312 891.215 94.625 890.809 93.8281C890.41 93.0312 889.84 92.4023 889.098 91.9414C888.363 91.4805 887.496 91.25 886.496 91.25C885.395 91.25 884.441 91.5234 883.637 92.0703C882.84 92.6094 882.227 93.3125 881.797 94.1797C881.367 95.0469 881.152 95.9766 881.152 96.9687V98.5625C881.152 99.9219 881.387 101.074 881.855 102.02C882.332 102.957 882.992 103.672 883.836 104.164C884.68 104.648 885.66 104.891 886.777 104.891C887.504 104.891 888.16 104.789 888.746 104.586C889.34 104.375 889.852 104.063 890.281 103.648C890.711 103.227 891.043 102.703 891.277 102.078L893.949 102.828C893.668 103.734 893.195 104.531 892.531 105.219C891.867 105.898 891.047 106.43 890.07 106.812C889.094 107.188 887.996 107.375 886.777 107.375ZM901.203 96.1719V107H898.438V89H901.109V91.8125H901.344C901.766 90.8984 902.406 90.1641 903.266 89.6094C904.125 89.0469 905.234 88.7656 906.594 88.7656C907.813 88.7656 908.879 89.0156 909.793 89.5156C910.707 90.0078 911.418 90.7578 911.926 91.7656C912.434 92.7656 912.688 94.0312 912.688 95.5625V107H909.922V95.75C909.922 94.3359 909.555 93.2344 908.82 92.4453C908.086 91.6484 907.078 91.25 905.797 91.25C904.914 91.25 904.125 91.4414 903.43 91.8242C902.742 92.207 902.199 92.7656 901.801 93.5C901.402 94.2344 901.203 95.125 901.203 96.1719Z" fill="#110202"/>
<path d="M107.283 1052V1015.64H111.687V1033.68H112.113L128.448 1015.64H134.201L118.931 1032.04L134.201 1052H128.874L116.232 1035.1L111.687 1040.21V1052H107.283ZM147.358 1052.64C145.63 1052.64 144.061 1052.31 142.653 1051.66C141.244 1051 140.125 1050.05 139.297 1048.8C138.468 1047.55 138.054 1046.03 138.054 1044.26C138.054 1042.7 138.362 1041.43 138.977 1040.46C139.593 1039.48 140.415 1038.71 141.445 1038.15C142.475 1037.59 143.611 1037.18 144.854 1036.91C146.109 1036.62 147.37 1036.4 148.636 1036.23C150.293 1036.02 151.637 1035.86 152.667 1035.75C153.708 1035.64 154.466 1035.44 154.94 1035.17C155.425 1034.9 155.668 1034.42 155.668 1033.75V1033.61C155.668 1031.85 155.188 1030.49 154.229 1029.52C153.282 1028.55 151.844 1028.07 149.915 1028.07C147.914 1028.07 146.346 1028.5 145.209 1029.38C144.073 1030.26 143.274 1031.19 142.812 1032.18L138.835 1030.76C139.545 1029.11 140.492 1027.82 141.676 1026.89C142.872 1025.96 144.174 1025.31 145.582 1024.94C147.003 1024.56 148.4 1024.37 149.773 1024.37C150.649 1024.37 151.655 1024.48 152.791 1024.69C153.939 1024.89 155.046 1025.31 156.111 1025.95C157.189 1026.59 158.082 1027.56 158.793 1028.85C159.503 1030.14 159.858 1031.87 159.858 1034.03V1052H155.668V1048.31H155.454C155.17 1048.9 154.697 1049.53 154.034 1050.21C153.371 1050.88 152.489 1051.46 151.388 1051.93C150.288 1052.4 148.944 1052.64 147.358 1052.64ZM147.997 1048.88C149.654 1048.88 151.051 1048.55 152.187 1047.9C153.336 1047.25 154.2 1046.41 154.78 1045.38C155.372 1044.35 155.668 1043.26 155.668 1042.13V1038.29C155.49 1038.51 155.099 1038.7 154.496 1038.88C153.904 1039.04 153.217 1039.19 152.436 1039.32C151.667 1039.44 150.915 1039.55 150.181 1039.64C149.459 1039.72 148.873 1039.8 148.423 1039.86C147.334 1040 146.316 1040.23 145.369 1040.55C144.434 1040.86 143.677 1041.32 143.097 1041.95C142.528 1042.57 142.244 1043.41 142.244 1044.47C142.244 1045.93 142.783 1047.03 143.86 1047.77C144.949 1048.51 146.328 1048.88 147.997 1048.88ZM188.831 1024.73L178.745 1052H174.484L164.399 1024.73H168.944L176.473 1046.46H176.757L184.285 1024.73H188.831ZM204.82 1052.57C202.192 1052.57 199.925 1051.99 198.019 1050.83C196.125 1049.66 194.663 1048.02 193.634 1045.93C192.616 1043.82 192.107 1041.37 192.107 1038.58C192.107 1035.78 192.616 1033.32 193.634 1031.19C194.663 1029.05 196.096 1027.38 197.93 1026.18C199.777 1024.98 201.931 1024.37 204.394 1024.37C205.814 1024.37 207.217 1024.61 208.602 1025.08C209.987 1025.56 211.247 1026.33 212.384 1027.39C213.52 1028.44 214.426 1029.84 215.1 1031.58C215.775 1033.32 216.112 1035.46 216.112 1038.01V1039.78H195.09V1036.16H211.851C211.851 1034.62 211.543 1033.25 210.928 1032.04C210.324 1030.84 209.46 1029.88 208.335 1029.18C207.223 1028.49 205.909 1028.14 204.394 1028.14C202.725 1028.14 201.28 1028.55 200.061 1029.38C198.854 1030.2 197.925 1031.26 197.274 1032.58C196.622 1033.89 196.297 1035.3 196.297 1036.8V1039.22C196.297 1041.28 196.652 1043.02 197.362 1044.45C198.084 1045.87 199.085 1046.96 200.363 1047.7C201.641 1048.44 203.127 1048.8 204.82 1048.8C205.921 1048.8 206.915 1048.65 207.803 1048.34C208.702 1048.02 209.478 1047.55 210.129 1046.92C210.78 1046.28 211.283 1045.49 211.638 1044.54L215.686 1045.68C215.26 1047.05 214.544 1048.26 213.538 1049.3C212.532 1050.33 211.289 1051.14 209.809 1051.72C208.329 1052.28 206.666 1052.57 204.82 1052.57ZM222.487 1052V1024.73H226.535V1028.85H226.819C227.316 1027.5 228.216 1026.4 229.518 1025.56C230.82 1024.72 232.288 1024.3 233.921 1024.3C234.229 1024.3 234.614 1024.31 235.075 1024.32C235.537 1024.33 235.886 1024.35 236.123 1024.37V1028.63C235.981 1028.6 235.655 1028.54 235.146 1028.47C234.649 1028.39 234.122 1028.35 233.566 1028.35C232.24 1028.35 231.057 1028.63 230.015 1029.18C228.985 1029.73 228.168 1030.49 227.565 1031.46C226.973 1032.42 226.677 1033.51 226.677 1034.74V1052H222.487ZM241.09 1052V1024.73H245.28V1052H241.09ZM243.221 1020.18C242.404 1020.18 241.7 1019.9 241.108 1019.35C240.528 1018.79 240.238 1018.12 240.238 1017.34C240.238 1016.56 240.528 1015.89 241.108 1015.33C241.7 1014.78 242.404 1014.5 243.221 1014.5C244.038 1014.5 244.736 1014.78 245.316 1015.33C245.908 1015.89 246.204 1016.56 246.204 1017.34C246.204 1018.12 245.908 1018.79 245.316 1019.35C244.736 1019.9 244.038 1020.18 243.221 1020.18ZM104.5 1113V1076.64H108.903V1092.83H128.293V1076.64H132.696V1113H128.293V1096.74H108.903V1113H104.5ZM152.023 1113.57C149.561 1113.57 147.401 1112.98 145.542 1111.81C143.696 1110.64 142.252 1109 141.21 1106.89C140.18 1104.79 139.665 1102.32 139.665 1099.51C139.665 1096.66 140.18 1094.18 141.21 1092.07C142.252 1089.95 143.696 1088.3 145.542 1087.13C147.401 1085.96 149.561 1085.37 152.023 1085.37C154.485 1085.37 156.64 1085.96 158.486 1087.13C160.345 1088.3 161.789 1089.95 162.819 1092.07C163.86 1094.18 164.381 1096.66 164.381 1099.51C164.381 1102.32 163.86 1104.79 162.819 1106.89C161.789 1109 160.345 1110.64 158.486 1111.81C156.64 1112.98 154.485 1113.57 152.023 1113.57ZM152.023 1109.8C153.893 1109.8 155.432 1109.32 156.64 1108.37C157.847 1107.41 158.741 1106.15 159.321 1104.58C159.901 1103.02 160.191 1101.33 160.191 1099.51C160.191 1097.68 159.901 1095.98 159.321 1094.41C158.741 1092.84 157.847 1091.56 156.64 1090.59C155.432 1089.62 153.893 1089.14 152.023 1089.14C150.153 1089.14 148.614 1089.62 147.407 1090.59C146.199 1091.56 145.306 1092.84 144.726 1094.41C144.146 1095.98 143.856 1097.68 143.856 1099.51C143.856 1101.33 144.146 1103.02 144.726 1104.58C145.306 1106.15 146.199 1107.41 147.407 1108.37C148.614 1109.32 150.153 1109.8 152.023 1109.8ZM190.096 1091.84L186.332 1092.9C186.095 1092.27 185.746 1091.66 185.284 1091.07C184.834 1090.47 184.219 1089.97 183.437 1089.58C182.656 1089.19 181.656 1088.99 180.437 1088.99C178.768 1088.99 177.377 1089.38 176.264 1090.15C175.163 1090.91 174.613 1091.87 174.613 1093.04C174.613 1094.08 174.992 1094.91 175.749 1095.51C176.507 1096.11 177.69 1096.62 179.3 1097.02L183.349 1098.01C185.787 1098.61 187.604 1099.51 188.8 1100.73C189.995 1101.94 190.593 1103.49 190.593 1105.4C190.593 1106.96 190.143 1108.36 189.244 1109.59C188.356 1110.82 187.113 1111.79 185.515 1112.5C183.917 1113.21 182.058 1113.57 179.94 1113.57C177.158 1113.57 174.855 1112.96 173.033 1111.76C171.21 1110.55 170.056 1108.79 169.57 1106.47L173.547 1105.47C173.926 1106.94 174.642 1108.04 175.696 1108.77C176.761 1109.51 178.152 1109.88 179.869 1109.88C181.822 1109.88 183.372 1109.46 184.521 1108.63C185.681 1107.79 186.261 1106.79 186.261 1105.61C186.261 1104.67 185.929 1103.87 185.266 1103.23C184.603 1102.58 183.585 1102.1 182.212 1101.78L177.667 1100.71C175.169 1100.12 173.334 1099.2 172.163 1097.96C171.003 1096.71 170.422 1095.14 170.422 1093.26C170.422 1091.72 170.855 1090.36 171.719 1089.17C172.595 1087.99 173.784 1087.06 175.288 1086.38C176.803 1085.71 178.519 1085.37 180.437 1085.37C183.136 1085.37 185.254 1085.96 186.793 1087.15C188.344 1088.33 189.445 1089.89 190.096 1091.84ZM208.761 1085.73V1089.28H194.628V1085.73H208.761ZM198.747 1079.19H202.938V1105.19C202.938 1106.37 203.109 1107.26 203.453 1107.85C203.808 1108.43 204.257 1108.82 204.802 1109.02C205.358 1109.21 205.944 1109.31 206.56 1109.31C207.021 1109.31 207.4 1109.28 207.696 1109.24C207.992 1109.18 208.229 1109.13 208.406 1109.09L209.259 1112.86C208.975 1112.96 208.578 1113.07 208.069 1113.18C207.56 1113.3 206.915 1113.36 206.134 1113.36C204.95 1113.36 203.79 1113.1 202.653 1112.59C201.529 1112.08 200.594 1111.31 199.848 1110.27C199.114 1109.22 198.747 1107.91 198.747 1106.32V1079.19ZM226.206 1113.57C223.579 1113.57 221.312 1112.99 219.406 1111.83C217.512 1110.66 216.05 1109.02 215.02 1106.93C214.002 1104.82 213.493 1102.37 213.493 1099.58C213.493 1096.78 214.002 1094.32 215.02 1092.19C216.05 1090.05 217.482 1088.38 219.317 1087.18C221.164 1085.98 223.318 1085.37 225.78 1085.37C227.201 1085.37 228.603 1085.61 229.988 1086.08C231.373 1086.56 232.634 1087.33 233.77 1088.39C234.907 1089.44 235.812 1090.84 236.487 1092.58C237.162 1094.32 237.499 1096.46 237.499 1099.01V1100.78H216.476V1097.16H233.238C233.238 1095.62 232.93 1094.25 232.314 1093.04C231.711 1091.84 230.847 1090.88 229.722 1090.18C228.609 1089.49 227.295 1089.14 225.78 1089.14C224.111 1089.14 222.667 1089.55 221.448 1090.38C220.241 1091.2 219.311 1092.26 218.66 1093.58C218.009 1094.89 217.684 1096.3 217.684 1097.8V1100.22C217.684 1102.28 218.039 1104.02 218.749 1105.45C219.471 1106.87 220.471 1107.96 221.75 1108.7C223.028 1109.44 224.514 1109.8 226.206 1109.8C227.307 1109.8 228.302 1109.65 229.189 1109.34C230.089 1109.02 230.864 1108.55 231.515 1107.92C232.166 1107.28 232.669 1106.49 233.025 1105.54L237.073 1106.68C236.647 1108.05 235.931 1109.26 234.924 1110.3C233.918 1111.33 232.675 1112.14 231.196 1112.72C229.716 1113.28 228.053 1113.57 226.206 1113.57ZM248.064 1076.64V1113H243.873V1076.64H248.064Z" fill="#110202"/>
<path d="M1132.32 1029V992.636H1136.72V1010.68H1137.15L1153.48 992.636H1159.24L1143.97 1009.04L1159.24 1029H1153.91L1141.27 1012.1L1136.72 1017.21V1029H1132.32ZM1164.37 1029V1001.73H1168.41V1005.85H1168.7C1169.2 1004.5 1170.1 1003.4 1171.4 1002.56C1172.7 1001.72 1174.17 1001.3 1175.8 1001.3C1176.11 1001.3 1176.49 1001.31 1176.96 1001.32C1177.42 1001.33 1177.77 1001.35 1178 1001.37V1005.63C1177.86 1005.6 1177.54 1005.54 1177.03 1005.47C1176.53 1005.39 1176 1005.35 1175.45 1005.35C1174.12 1005.35 1172.94 1005.63 1171.89 1006.18C1170.87 1006.73 1170.05 1007.49 1169.44 1008.46C1168.85 1009.42 1168.56 1010.51 1168.56 1011.74V1029H1164.37ZM1182.97 1029V1001.73H1187.16V1029H1182.97ZM1185.1 997.182C1184.28 997.182 1183.58 996.904 1182.99 996.347C1182.41 995.791 1182.12 995.122 1182.12 994.341C1182.12 993.56 1182.41 992.891 1182.99 992.335C1183.58 991.778 1184.28 991.5 1185.1 991.5C1185.92 991.5 1186.62 991.778 1187.2 992.335C1187.79 992.891 1188.08 993.56 1188.08 994.341C1188.08 995.122 1187.79 995.791 1187.2 996.347C1186.62 996.904 1185.92 997.182 1185.1 997.182ZM1214.15 1007.84L1210.39 1008.9C1210.15 1008.27 1209.8 1007.66 1209.34 1007.07C1208.89 1006.47 1208.28 1005.97 1207.5 1005.58C1206.71 1005.19 1205.71 1004.99 1204.49 1004.99C1202.83 1004.99 1201.43 1005.38 1200.32 1006.15C1199.22 1006.91 1198.67 1007.87 1198.67 1009.04C1198.67 1010.08 1199.05 1010.91 1199.81 1011.51C1200.56 1012.11 1201.75 1012.62 1203.36 1013.02L1207.41 1014.01C1209.84 1014.61 1211.66 1015.51 1212.86 1016.73C1214.05 1017.94 1214.65 1019.49 1214.65 1021.4C1214.65 1022.96 1214.2 1024.36 1213.3 1025.59C1212.41 1026.82 1211.17 1027.79 1209.57 1028.5C1207.97 1029.21 1206.12 1029.57 1204 1029.57C1201.22 1029.57 1198.91 1028.96 1197.09 1027.76C1195.27 1026.55 1194.11 1024.79 1193.63 1022.47L1197.61 1021.47C1197.98 1022.94 1198.7 1024.04 1199.75 1024.77C1200.82 1025.51 1202.21 1025.88 1203.93 1025.88C1205.88 1025.88 1207.43 1025.46 1208.58 1024.63C1209.74 1023.79 1210.32 1022.79 1210.32 1021.61C1210.32 1020.67 1209.99 1019.87 1209.32 1019.23C1208.66 1018.58 1207.64 1018.1 1206.27 1017.78L1201.72 1016.71C1199.23 1016.12 1197.39 1015.2 1196.22 1013.96C1195.06 1012.71 1194.48 1011.14 1194.48 1009.26C1194.48 1007.72 1194.91 1006.36 1195.78 1005.17C1196.65 1003.99 1197.84 1003.06 1199.35 1002.38C1200.86 1001.71 1202.58 1001.37 1204.49 1001.37C1207.19 1001.37 1209.31 1001.96 1210.85 1003.15C1212.4 1004.33 1213.5 1005.89 1214.15 1007.84ZM1225.15 1012.59V1029H1220.96V992.636H1225.15V1005.99H1225.5C1226.14 1004.58 1227.1 1003.46 1228.38 1002.63C1229.67 1001.79 1231.39 1001.37 1233.53 1001.37C1235.39 1001.37 1237.02 1001.75 1238.41 1002.49C1239.81 1003.22 1240.89 1004.36 1241.66 1005.88C1242.44 1007.4 1242.83 1009.33 1242.83 1011.67V1029H1238.64V1011.95C1238.64 1009.79 1238.08 1008.11 1236.96 1006.93C1235.84 1005.73 1234.3 1005.14 1232.32 1005.14C1230.95 1005.14 1229.72 1005.43 1228.63 1006.01C1227.55 1006.59 1226.7 1007.43 1226.07 1008.55C1225.46 1009.66 1225.15 1011.01 1225.15 1012.59ZM1254.69 1012.59V1029H1250.5V1001.73H1254.55V1005.99H1254.9C1255.54 1004.6 1256.51 1003.49 1257.81 1002.65C1259.12 1001.8 1260.8 1001.37 1262.86 1001.37C1264.7 1001.37 1266.32 1001.75 1267.7 1002.51C1269.09 1003.25 1270.17 1004.39 1270.94 1005.92C1271.71 1007.43 1272.09 1009.35 1272.09 1011.67V1029H1267.9V1011.95C1267.9 1009.81 1267.34 1008.14 1266.23 1006.95C1265.12 1005.74 1263.59 1005.14 1261.65 1005.14C1260.31 1005.14 1259.12 1005.43 1258.06 1006.01C1257.02 1006.59 1256.2 1007.43 1255.6 1008.55C1254.99 1009.66 1254.69 1011.01 1254.69 1012.59ZM1287.77 1029.64C1286.04 1029.64 1284.48 1029.31 1283.07 1028.66C1281.66 1028 1280.54 1027.05 1279.71 1025.8C1278.88 1024.55 1278.47 1023.03 1278.47 1021.26C1278.47 1019.7 1278.78 1018.43 1279.39 1017.46C1280.01 1016.48 1280.83 1015.71 1281.86 1015.15C1282.89 1014.59 1284.03 1014.18 1285.27 1013.91C1286.52 1013.62 1287.78 1013.4 1289.05 1013.23C1290.71 1013.02 1292.05 1012.86 1293.08 1012.75C1294.12 1012.64 1294.88 1012.44 1295.35 1012.17C1295.84 1011.9 1296.08 1011.42 1296.08 1010.75V1010.61C1296.08 1008.85 1295.6 1007.49 1294.64 1006.52C1293.7 1005.55 1292.26 1005.07 1290.33 1005.07C1288.33 1005.07 1286.76 1005.5 1285.62 1006.38C1284.49 1007.26 1283.69 1008.19 1283.23 1009.18L1279.25 1007.76C1279.96 1006.11 1280.91 1004.82 1282.09 1003.89C1283.29 1002.96 1284.59 1002.31 1286 1001.94C1287.42 1001.56 1288.81 1001.37 1290.19 1001.37C1291.06 1001.37 1292.07 1001.48 1293.21 1001.69C1294.35 1001.89 1295.46 1002.31 1296.53 1002.95C1297.6 1003.59 1298.5 1004.56 1299.21 1005.85C1299.92 1007.14 1300.27 1008.87 1300.27 1011.03V1029H1296.08V1025.31H1295.87C1295.59 1025.9 1295.11 1026.53 1294.45 1027.21C1293.79 1027.88 1292.9 1028.46 1291.8 1028.93C1290.7 1029.4 1289.36 1029.64 1287.77 1029.64ZM1288.41 1025.88C1290.07 1025.88 1291.47 1025.55 1292.6 1024.9C1293.75 1024.25 1294.61 1023.41 1295.19 1022.38C1295.79 1021.35 1296.08 1020.26 1296.08 1019.13V1015.29C1295.91 1015.51 1295.51 1015.7 1294.91 1015.88C1294.32 1016.04 1293.63 1016.19 1292.85 1016.32C1292.08 1016.44 1291.33 1016.55 1290.6 1016.64C1289.87 1016.72 1289.29 1016.8 1288.84 1016.86C1287.75 1017 1286.73 1017.23 1285.78 1017.55C1284.85 1017.86 1284.09 1018.32 1283.51 1018.95C1282.94 1019.57 1282.66 1020.41 1282.66 1021.47C1282.66 1022.93 1283.2 1024.03 1284.28 1024.77C1285.36 1025.51 1286.74 1025.88 1288.41 1025.88ZM1144.5 1090V1053.64H1148.9V1069.83H1168.29V1053.64H1172.7V1090H1168.29V1073.74H1148.9V1090H1144.5ZM1192.02 1090.57C1189.56 1090.57 1187.4 1089.98 1185.54 1088.81C1183.7 1087.64 1182.25 1086 1181.21 1083.89C1180.18 1081.79 1179.67 1079.32 1179.67 1076.51C1179.67 1073.66 1180.18 1071.18 1181.21 1069.07C1182.25 1066.95 1183.7 1065.3 1185.54 1064.13C1187.4 1062.96 1189.56 1062.37 1192.02 1062.37C1194.49 1062.37 1196.64 1062.96 1198.49 1064.13C1200.34 1065.3 1201.79 1066.95 1202.82 1069.07C1203.86 1071.18 1204.38 1073.66 1204.38 1076.51C1204.38 1079.32 1203.86 1081.79 1202.82 1083.89C1201.79 1086 1200.34 1087.64 1198.49 1088.81C1196.64 1089.98 1194.49 1090.57 1192.02 1090.57ZM1192.02 1086.8C1193.89 1086.8 1195.43 1086.32 1196.64 1085.37C1197.85 1084.41 1198.74 1083.15 1199.32 1081.58C1199.9 1080.02 1200.19 1078.33 1200.19 1076.51C1200.19 1074.68 1199.9 1072.98 1199.32 1071.41C1198.74 1069.84 1197.85 1068.56 1196.64 1067.59C1195.43 1066.62 1193.89 1066.14 1192.02 1066.14C1190.15 1066.14 1188.61 1066.62 1187.41 1067.59C1186.2 1068.56 1185.31 1069.84 1184.73 1071.41C1184.15 1072.98 1183.86 1074.68 1183.86 1076.51C1183.86 1078.33 1184.15 1080.02 1184.73 1081.58C1185.31 1083.15 1186.2 1084.41 1187.41 1085.37C1188.61 1086.32 1190.15 1086.8 1192.02 1086.8ZM1230.1 1068.84L1226.33 1069.9C1226.09 1069.27 1225.75 1068.66 1225.28 1068.07C1224.83 1067.47 1224.22 1066.97 1223.44 1066.58C1222.66 1066.19 1221.66 1065.99 1220.44 1065.99C1218.77 1065.99 1217.38 1066.38 1216.26 1067.15C1215.16 1067.91 1214.61 1068.87 1214.61 1070.04C1214.61 1071.08 1214.99 1071.91 1215.75 1072.51C1216.51 1073.11 1217.69 1073.62 1219.3 1074.02L1223.35 1075.01C1225.79 1075.61 1227.6 1076.51 1228.8 1077.73C1230 1078.94 1230.59 1080.49 1230.59 1082.4C1230.59 1083.96 1230.14 1085.36 1229.24 1086.59C1228.36 1087.82 1227.11 1088.79 1225.51 1089.5C1223.92 1090.21 1222.06 1090.57 1219.94 1090.57C1217.16 1090.57 1214.86 1089.96 1213.03 1088.76C1211.21 1087.55 1210.06 1085.79 1209.57 1083.47L1213.55 1082.47C1213.93 1083.94 1214.64 1085.04 1215.7 1085.77C1216.76 1086.51 1218.15 1086.88 1219.87 1086.88C1221.82 1086.88 1223.37 1086.46 1224.52 1085.63C1225.68 1084.79 1226.26 1083.79 1226.26 1082.61C1226.26 1081.67 1225.93 1080.87 1225.27 1080.23C1224.6 1079.58 1223.59 1079.1 1222.21 1078.78L1217.67 1077.71C1215.17 1077.12 1213.33 1076.2 1212.16 1074.96C1211 1073.71 1210.42 1072.14 1210.42 1070.26C1210.42 1068.72 1210.85 1067.36 1211.72 1066.17C1212.59 1064.99 1213.78 1064.06 1215.29 1063.38C1216.8 1062.71 1218.52 1062.37 1220.44 1062.37C1223.14 1062.37 1225.25 1062.96 1226.79 1064.15C1228.34 1065.33 1229.44 1066.89 1230.1 1068.84ZM1248.76 1062.73V1066.28H1234.63V1062.73H1248.76ZM1238.75 1056.19H1242.94V1082.19C1242.94 1083.37 1243.11 1084.26 1243.45 1084.85C1243.81 1085.43 1244.26 1085.82 1244.8 1086.02C1245.36 1086.21 1245.94 1086.31 1246.56 1086.31C1247.02 1086.31 1247.4 1086.28 1247.7 1086.24C1247.99 1086.18 1248.23 1086.13 1248.41 1086.09L1249.26 1089.86C1248.97 1089.96 1248.58 1090.07 1248.07 1090.18C1247.56 1090.3 1246.91 1090.36 1246.13 1090.36C1244.95 1090.36 1243.79 1090.1 1242.65 1089.59C1241.53 1089.08 1240.59 1088.31 1239.85 1087.27C1239.11 1086.22 1238.75 1084.91 1238.75 1083.32V1056.19ZM1266.21 1090.57C1263.58 1090.57 1261.31 1089.99 1259.41 1088.83C1257.51 1087.66 1256.05 1086.02 1255.02 1083.93C1254 1081.82 1253.49 1079.37 1253.49 1076.58C1253.49 1073.78 1254 1071.32 1255.02 1069.19C1256.05 1067.05 1257.48 1065.38 1259.32 1064.18C1261.16 1062.98 1263.32 1062.37 1265.78 1062.37C1267.2 1062.37 1268.6 1062.61 1269.99 1063.08C1271.37 1063.56 1272.63 1064.33 1273.77 1065.39C1274.91 1066.44 1275.81 1067.84 1276.49 1069.58C1277.16 1071.32 1277.5 1073.46 1277.5 1076.01V1077.78H1256.48V1074.16H1273.24C1273.24 1072.62 1272.93 1071.25 1272.31 1070.04C1271.71 1068.84 1270.85 1067.88 1269.72 1067.18C1268.61 1066.49 1267.3 1066.14 1265.78 1066.14C1264.11 1066.14 1262.67 1066.55 1261.45 1067.38C1260.24 1068.2 1259.31 1069.26 1258.66 1070.58C1258.01 1071.89 1257.68 1073.3 1257.68 1074.8V1077.22C1257.68 1079.28 1258.04 1081.02 1258.75 1082.45C1259.47 1083.87 1260.47 1084.96 1261.75 1085.7C1263.03 1086.44 1264.51 1086.8 1266.21 1086.8C1267.31 1086.8 1268.3 1086.65 1269.19 1086.34C1270.09 1086.02 1270.86 1085.55 1271.52 1084.92C1272.17 1084.28 1272.67 1083.49 1273.02 1082.54L1277.07 1083.68C1276.65 1085.05 1275.93 1086.26 1274.92 1087.3C1273.92 1088.33 1272.68 1089.14 1271.2 1089.72C1269.72 1090.28 1268.05 1090.57 1266.21 1090.57ZM1288.06 1053.64V1090H1283.87V1053.64H1288.06Z" fill="#110202"/>
<path d="M1142.45 128.636V165H1138.04V128.636H1142.45ZM1149.29 132.543V128.636H1176.56V132.543H1165.12V165H1160.72V132.543H1149.29ZM1197.42 165V128.636H1210.13C1212.66 128.636 1214.75 129.074 1216.4 129.95C1218.04 130.814 1219.27 131.98 1220.07 133.448C1220.88 134.904 1221.28 136.52 1221.28 138.295C1221.28 139.858 1221 141.148 1220.45 142.166C1219.9 143.184 1219.18 143.989 1218.28 144.581C1217.39 145.173 1216.43 145.611 1215.39 145.895V146.25C1216.5 146.321 1217.62 146.712 1218.74 147.422C1219.87 148.132 1220.81 149.15 1221.57 150.476C1222.32 151.802 1222.7 153.423 1222.7 155.341C1222.7 157.164 1222.29 158.803 1221.46 160.259C1220.63 161.715 1219.32 162.869 1217.54 163.722C1215.75 164.574 1213.42 165 1210.56 165H1197.42ZM1201.82 161.094H1210.56C1213.43 161.094 1215.48 160.537 1216.68 159.425C1217.9 158.3 1218.51 156.939 1218.51 155.341C1218.51 154.11 1218.2 152.973 1217.57 151.932C1216.94 150.878 1216.05 150.038 1214.89 149.411C1213.73 148.771 1212.36 148.452 1210.77 148.452H1201.82V161.094ZM1201.82 144.616H1209.99C1211.31 144.616 1212.51 144.356 1213.58 143.835C1214.65 143.314 1215.51 142.58 1216.13 141.634C1216.77 140.687 1217.09 139.574 1217.09 138.295C1217.09 136.697 1216.54 135.342 1215.42 134.229C1214.31 133.105 1212.55 132.543 1210.13 132.543H1201.82V144.616ZM1233.56 128.636V165H1229.37V128.636H1233.56ZM1252.31 165.568C1249.85 165.568 1247.69 164.982 1245.83 163.81C1243.99 162.638 1242.54 160.999 1241.5 158.892C1240.47 156.785 1239.96 154.323 1239.96 151.506C1239.96 148.665 1240.47 146.185 1241.5 144.066C1242.54 141.947 1243.99 140.302 1245.83 139.13C1247.69 137.958 1249.85 137.372 1252.31 137.372C1254.78 137.372 1256.93 137.958 1258.78 139.13C1260.64 140.302 1262.08 141.947 1263.11 144.066C1264.15 146.185 1264.67 148.665 1264.67 151.506C1264.67 154.323 1264.15 156.785 1263.11 158.892C1262.08 160.999 1260.64 162.638 1258.78 163.81C1256.93 164.982 1254.78 165.568 1252.31 165.568ZM1252.31 161.804C1254.18 161.804 1255.72 161.325 1256.93 160.366C1258.14 159.407 1259.03 158.146 1259.61 156.584C1260.19 155.021 1260.48 153.329 1260.48 151.506C1260.48 149.683 1260.19 147.984 1259.61 146.41C1259.03 144.835 1258.14 143.563 1256.93 142.592C1255.72 141.622 1254.18 141.136 1252.31 141.136C1250.44 141.136 1248.91 141.622 1247.7 142.592C1246.49 143.563 1245.6 144.835 1245.02 146.41C1244.44 147.984 1244.15 149.683 1244.15 151.506C1244.15 153.329 1244.44 155.021 1245.02 156.584C1245.6 158.146 1246.49 159.407 1247.7 160.366C1248.91 161.325 1250.44 161.804 1252.31 161.804ZM1282.15 165.568C1279.59 165.568 1277.39 164.964 1275.54 163.757C1273.7 162.55 1272.28 160.887 1271.28 158.768C1270.29 156.649 1269.79 154.228 1269.79 151.506C1269.79 148.736 1270.3 146.291 1271.32 144.173C1272.35 142.042 1273.78 140.379 1275.61 139.183C1277.46 137.976 1279.62 137.372 1282.08 137.372C1283.99 137.372 1285.72 137.727 1287.26 138.438C1288.8 139.148 1290.06 140.142 1291.04 141.42C1292.03 142.699 1292.64 144.19 1292.87 145.895H1288.68C1288.36 144.652 1287.65 143.551 1286.55 142.592C1285.46 141.622 1283.99 141.136 1282.15 141.136C1280.51 141.136 1279.08 141.562 1277.85 142.415C1276.63 143.255 1275.68 144.445 1274.99 145.984C1274.32 147.511 1273.98 149.304 1273.98 151.364C1273.98 153.471 1274.31 155.305 1274.97 156.868C1275.65 158.43 1276.6 159.644 1277.82 160.508C1279.05 161.372 1280.49 161.804 1282.15 161.804C1283.24 161.804 1284.23 161.615 1285.11 161.236C1286 160.857 1286.75 160.312 1287.37 159.602C1287.98 158.892 1288.42 158.04 1288.68 157.045H1292.87C1292.64 158.655 1292.05 160.105 1291.11 161.396C1290.19 162.674 1288.97 163.692 1287.44 164.45C1285.92 165.195 1284.16 165.568 1282.15 165.568ZM1302.9 155.057L1302.83 149.872H1303.69L1315.62 137.727H1320.8L1308.09 150.582H1307.73L1302.9 155.057ZM1299 165V128.636H1303.19V165H1299ZM1316.33 165L1305.67 151.506L1308.66 148.594L1321.65 165H1316.33Z" fill="#110202"/>
<path d="M1195.68 425H1191.28C1191.02 423.733 1190.56 422.621 1189.91 421.662C1189.27 420.703 1188.49 419.898 1187.57 419.247C1186.66 418.584 1185.64 418.087 1184.53 417.756C1183.42 417.424 1182.26 417.259 1181.05 417.259C1178.85 417.259 1176.85 417.815 1175.07 418.928C1173.29 420.04 1171.88 421.68 1170.82 423.846C1169.78 426.012 1169.26 428.67 1169.26 431.818C1169.26 434.967 1169.78 437.624 1170.82 439.79C1171.88 441.957 1173.29 443.596 1175.07 444.709C1176.85 445.821 1178.85 446.378 1181.05 446.378C1182.26 446.378 1183.42 446.212 1184.53 445.881C1185.64 445.549 1186.66 445.058 1187.57 444.407C1188.49 443.744 1189.27 442.933 1189.91 441.974C1190.56 441.004 1191.02 439.891 1191.28 438.636H1195.68C1195.35 440.495 1194.75 442.158 1193.87 443.626C1192.99 445.094 1191.91 446.342 1190.6 447.372C1189.3 448.39 1187.84 449.165 1186.22 449.698C1184.61 450.231 1182.89 450.497 1181.05 450.497C1177.95 450.497 1175.19 449.74 1172.78 448.224C1170.36 446.709 1168.46 444.555 1167.08 441.761C1165.69 438.968 1165 435.653 1165 431.818C1165 427.983 1165.69 424.669 1167.08 421.875C1168.46 419.081 1170.36 416.927 1172.78 415.412C1175.19 413.897 1177.95 413.139 1181.05 413.139C1182.89 413.139 1184.61 413.406 1186.22 413.938C1187.84 414.471 1189.3 415.252 1190.6 416.282C1191.91 417.3 1192.99 418.543 1193.87 420.011C1194.75 421.467 1195.35 423.13 1195.68 425ZM1222.68 422.727C1222.47 420.928 1221.61 419.531 1220.09 418.537C1218.58 417.543 1216.72 417.045 1214.52 417.045C1212.91 417.045 1211.5 417.306 1210.29 417.827C1209.09 418.348 1208.16 419.064 1207.48 419.975C1206.82 420.887 1206.49 421.922 1206.49 423.082C1206.49 424.053 1206.72 424.888 1207.18 425.586C1207.66 426.272 1208.26 426.847 1208.99 427.308C1209.73 427.758 1210.5 428.131 1211.3 428.427C1212.11 428.711 1212.85 428.942 1213.52 429.119L1217.21 430.114C1218.16 430.362 1219.22 430.705 1220.38 431.143C1221.55 431.581 1222.67 432.179 1223.73 432.937C1224.81 433.683 1225.7 434.641 1226.39 435.813C1227.09 436.985 1227.44 438.423 1227.44 440.128C1227.44 442.093 1226.93 443.868 1225.9 445.455C1224.88 447.041 1223.39 448.301 1221.42 449.237C1219.47 450.172 1217.1 450.639 1214.3 450.639C1211.7 450.639 1209.44 450.219 1207.54 449.379C1205.64 448.538 1204.15 447.366 1203.06 445.863C1201.99 444.36 1201.38 442.614 1201.23 440.625H1205.78C1205.9 441.998 1206.36 443.134 1207.16 444.034C1207.98 444.922 1209.01 445.585 1210.25 446.023C1211.51 446.449 1212.86 446.662 1214.3 446.662C1215.98 446.662 1217.49 446.39 1218.83 445.845C1220.17 445.289 1221.23 444.519 1222.01 443.537C1222.79 442.543 1223.18 441.383 1223.18 440.057C1223.18 438.849 1222.84 437.867 1222.17 437.109C1221.49 436.352 1220.61 435.736 1219.51 435.263C1218.4 434.789 1217.21 434.375 1215.94 434.02L1211.46 432.741C1208.62 431.925 1206.37 430.759 1204.71 429.244C1203.06 427.728 1202.23 425.746 1202.23 423.295C1202.23 421.259 1202.78 419.484 1203.88 417.969C1204.99 416.442 1206.48 415.258 1208.35 414.418C1210.24 413.565 1212.34 413.139 1214.66 413.139C1217 413.139 1219.08 413.559 1220.91 414.4C1222.73 415.228 1224.17 416.365 1225.24 417.809C1226.32 419.253 1226.89 420.893 1226.94 422.727H1222.68ZM1234.68 450V413.636H1256.63V417.543H1239.09V429.83H1255.49V433.736H1239.09V446.094H1256.91V450H1234.68ZM1276.85 411.932L1265.13 455.469H1261.3L1273.02 411.932H1276.85ZM1176.33 511V474.636H1198.28V478.543H1180.74V490.83H1197.14V494.736H1180.74V507.094H1198.56V511H1176.33ZM1235.48 486H1231.07C1230.81 484.733 1230.36 483.621 1229.71 482.662C1229.07 481.703 1228.29 480.898 1227.36 480.247C1226.45 479.584 1225.44 479.087 1224.33 478.756C1223.21 478.424 1222.05 478.259 1220.85 478.259C1218.64 478.259 1216.65 478.815 1214.86 479.928C1213.09 481.04 1211.67 482.68 1210.62 484.846C1209.58 487.012 1209.06 489.67 1209.06 492.818C1209.06 495.967 1209.58 498.624 1210.62 500.79C1211.67 502.957 1213.09 504.596 1214.86 505.709C1216.65 506.821 1218.64 507.378 1220.85 507.378C1222.05 507.378 1223.21 507.212 1224.33 506.881C1225.44 506.549 1226.45 506.058 1227.36 505.407C1228.29 504.744 1229.07 503.933 1229.71 502.974C1230.36 502.004 1230.81 500.891 1231.07 499.636H1235.48C1235.14 501.495 1234.54 503.158 1233.67 504.626C1232.79 506.094 1231.7 507.342 1230.4 508.372C1229.1 509.39 1227.63 510.165 1226.01 510.698C1224.4 511.231 1222.68 511.497 1220.85 511.497C1217.74 511.497 1214.99 510.74 1212.57 509.224C1210.16 507.709 1208.26 505.555 1206.87 502.761C1205.49 499.968 1204.79 496.653 1204.79 492.818C1204.79 488.983 1205.49 485.669 1206.87 482.875C1208.26 480.081 1210.16 477.927 1212.57 476.412C1214.99 474.897 1217.74 474.139 1220.85 474.139C1222.68 474.139 1224.4 474.406 1226.01 474.938C1227.63 475.471 1229.1 476.252 1230.4 477.282C1231.7 478.3 1232.79 479.543 1233.67 481.011C1234.54 482.467 1235.14 484.13 1235.48 486ZM1242.59 511V474.636H1264.54V478.543H1247V490.83H1263.4V494.736H1247V507.094H1264.82V511H1242.59ZM1159.73 572V535.636H1172.44C1174.98 535.636 1177.07 536.074 1178.71 536.95C1180.36 537.814 1181.58 538.98 1182.39 540.448C1183.19 541.904 1183.59 543.52 1183.59 545.295C1183.59 546.858 1183.32 548.148 1182.76 549.166C1182.22 550.184 1181.49 550.989 1180.59 551.581C1179.71 552.173 1178.74 552.611 1177.7 552.895V553.25C1178.81 553.321 1179.93 553.712 1181.06 554.422C1182.18 555.132 1183.12 556.15 1183.88 557.476C1184.64 558.802 1185.01 560.423 1185.01 562.341C1185.01 564.164 1184.6 565.803 1183.77 567.259C1182.94 568.715 1181.64 569.869 1179.85 570.722C1178.06 571.574 1175.73 572 1172.87 572H1159.73ZM1164.13 568.094H1172.87C1175.75 568.094 1177.79 567.537 1179 566.425C1180.21 565.3 1180.82 563.939 1180.82 562.341C1180.82 561.11 1180.51 559.973 1179.88 558.932C1179.26 557.878 1178.36 557.038 1177.2 556.411C1176.04 555.771 1174.67 555.452 1173.08 555.452H1164.13V568.094ZM1164.13 551.616H1172.3C1173.63 551.616 1174.82 551.356 1175.89 550.835C1176.97 550.314 1177.82 549.58 1178.45 548.634C1179.08 547.687 1179.4 546.574 1179.4 545.295C1179.4 543.697 1178.85 542.342 1177.73 541.229C1176.62 540.105 1174.86 539.543 1172.44 539.543H1164.13V551.616ZM1195.87 535.636V572H1191.68V535.636H1195.87ZM1214.63 572.568C1212.16 572.568 1210 571.982 1208.15 570.81C1206.3 569.638 1204.86 567.999 1203.81 565.892C1202.78 563.785 1202.27 561.323 1202.27 558.506C1202.27 555.665 1202.78 553.185 1203.81 551.066C1204.86 548.947 1206.3 547.302 1208.15 546.13C1210 544.958 1212.16 544.372 1214.63 544.372C1217.09 544.372 1219.24 544.958 1221.09 546.13C1222.95 547.302 1224.39 548.947 1225.42 551.066C1226.46 553.185 1226.98 555.665 1226.98 558.506C1226.98 561.323 1226.46 563.785 1225.42 565.892C1224.39 567.999 1222.95 569.638 1221.09 570.81C1219.24 571.982 1217.09 572.568 1214.63 572.568ZM1214.63 568.804C1216.5 568.804 1218.04 568.325 1219.24 567.366C1220.45 566.407 1221.34 565.146 1221.92 563.584C1222.5 562.021 1222.79 560.329 1222.79 558.506C1222.79 556.683 1222.5 554.984 1221.92 553.41C1221.34 551.835 1220.45 550.563 1219.24 549.592C1218.04 548.622 1216.5 548.136 1214.63 548.136C1212.76 548.136 1211.22 548.622 1210.01 549.592C1208.8 550.563 1207.91 551.835 1207.33 553.41C1206.75 554.984 1206.46 556.683 1206.46 558.506C1206.46 560.329 1206.75 562.021 1207.33 563.584C1207.91 565.146 1208.8 566.407 1210.01 567.366C1211.22 568.325 1212.76 568.804 1214.63 568.804ZM1244.46 572.568C1241.9 572.568 1239.7 571.964 1237.86 570.757C1236.01 569.55 1234.59 567.887 1233.59 565.768C1232.6 563.649 1232.1 561.228 1232.1 558.506C1232.1 555.736 1232.61 553.291 1233.63 551.173C1234.66 549.042 1236.09 547.379 1237.93 546.183C1239.77 544.976 1241.93 544.372 1244.39 544.372C1246.31 544.372 1248.04 544.727 1249.57 545.438C1251.11 546.148 1252.37 547.142 1253.36 548.42C1254.34 549.699 1254.95 551.19 1255.19 552.895H1250.99C1250.68 551.652 1249.96 550.551 1248.86 549.592C1247.78 548.622 1246.31 548.136 1244.46 548.136C1242.83 548.136 1241.39 548.562 1240.16 549.415C1238.94 550.255 1237.99 551.445 1237.31 552.984C1236.63 554.511 1236.29 556.304 1236.29 558.364C1236.29 560.471 1236.62 562.305 1237.29 563.868C1237.96 565.43 1238.91 566.644 1240.13 567.508C1241.36 568.372 1242.8 568.804 1244.46 568.804C1245.55 568.804 1246.54 568.615 1247.43 568.236C1248.31 567.857 1249.07 567.312 1249.68 566.602C1250.3 565.892 1250.73 565.04 1250.99 564.045H1255.19C1254.95 565.655 1254.36 567.105 1253.43 568.396C1252.5 569.674 1251.28 570.692 1249.75 571.45C1248.24 572.195 1246.47 572.568 1244.46 572.568ZM1265.22 562.057L1265.15 556.872H1266L1277.93 544.727H1283.11L1270.4 557.582H1270.05L1265.22 562.057ZM1261.31 572V535.636H1265.5V572H1261.31ZM1278.64 572L1267.99 558.506L1270.97 555.594L1283.97 572H1278.64Z" fill="#110202"/>
<path d="M88.3263 495.636H93.5819L105.94 525.821H106.366L118.724 495.636H123.98V532H119.86V504.372H119.505L108.142 532H104.164L92.8007 504.372H92.4456V532H88.3263V495.636ZM134.3 532H129.684L143.036 495.636H147.581L160.934 532H156.317L145.451 501.389H145.167L134.3 532ZM136.005 517.795H154.613V521.702H136.005V517.795ZM166.598 532V495.636H188.544V499.543H171.001V511.83H187.407V515.736H171.001V528.094H188.828V532H166.598ZM77.7306 593V556.636H90.4436C92.9768 556.636 95.066 557.074 96.7114 557.95C98.3567 558.814 99.5819 559.98 100.387 561.448C101.192 562.904 101.594 564.52 101.594 566.295C101.594 567.858 101.316 569.148 100.76 570.166C100.215 571.184 99.4931 571.989 98.5935 572.581C97.7057 573.173 96.741 573.611 95.6993 573.895V574.25C96.812 574.321 97.9306 574.712 99.0551 575.422C100.18 576.132 101.121 577.15 101.878 578.476C102.636 579.802 103.015 581.423 103.015 583.341C103.015 585.164 102.6 586.803 101.772 588.259C100.943 589.715 99.6352 590.869 97.8477 591.722C96.0603 592.574 93.7343 593 90.8698 593H77.7306ZM82.134 589.094H90.8698C93.7462 589.094 95.7881 588.537 96.9955 587.425C98.2147 586.3 98.8243 584.939 98.8243 583.341C98.8243 582.11 98.5106 580.973 97.8833 579.932C97.2559 578.878 96.3622 578.038 95.2021 577.411C94.0421 576.771 92.669 576.452 91.0828 576.452H82.134V589.094ZM82.134 572.616H90.3016C91.6273 572.616 92.8229 572.356 93.8882 571.835C94.9654 571.314 95.8177 570.58 96.445 569.634C97.0843 568.687 97.4039 567.574 97.4039 566.295C97.4039 564.697 96.8475 563.342 95.7348 562.229C94.6221 561.105 92.8584 560.543 90.4436 560.543H82.134V572.616ZM113.872 556.636V593H109.682V556.636H113.872ZM132.627 593.568C130.165 593.568 128.004 592.982 126.146 591.81C124.299 590.638 122.855 588.999 121.813 586.892C120.784 584.785 120.269 582.323 120.269 579.506C120.269 576.665 120.784 574.185 121.813 572.066C122.855 569.947 124.299 568.302 126.146 567.13C128.004 565.958 130.165 565.372 132.627 565.372C135.089 565.372 137.243 565.958 139.09 567.13C140.948 568.302 142.392 569.947 143.422 572.066C144.464 574.185 144.985 576.665 144.985 579.506C144.985 582.323 144.464 584.785 143.422 586.892C142.392 588.999 140.948 590.638 139.09 591.81C137.243 592.982 135.089 593.568 132.627 593.568ZM132.627 589.804C134.497 589.804 136.036 589.325 137.243 588.366C138.451 587.407 139.344 586.146 139.924 584.584C140.504 583.021 140.794 581.329 140.794 579.506C140.794 577.683 140.504 575.984 139.924 574.41C139.344 572.835 138.451 571.563 137.243 570.592C136.036 569.622 134.497 569.136 132.627 569.136C130.756 569.136 129.218 569.622 128.01 570.592C126.803 571.563 125.909 572.835 125.329 574.41C124.749 575.984 124.459 577.683 124.459 579.506C124.459 581.329 124.749 583.021 125.329 584.584C125.909 586.146 126.803 587.407 128.01 588.366C129.218 589.325 130.756 589.804 132.627 589.804ZM162.461 593.568C159.904 593.568 157.702 592.964 155.856 591.757C154.009 590.55 152.589 588.887 151.594 586.768C150.6 584.649 150.103 582.228 150.103 579.506C150.103 576.736 150.612 574.291 151.63 572.173C152.66 570.042 154.092 568.379 155.927 567.183C157.773 565.976 159.928 565.372 162.39 565.372C164.307 565.372 166.035 565.727 167.574 566.438C169.113 567.148 170.374 568.142 171.356 569.42C172.339 570.699 172.948 572.19 173.185 573.895H168.995C168.675 572.652 167.965 571.551 166.864 570.592C165.775 569.622 164.307 569.136 162.461 569.136C160.827 569.136 159.395 569.562 158.164 570.415C156.945 571.255 155.992 572.445 155.305 573.984C154.63 575.511 154.293 577.304 154.293 579.364C154.293 581.471 154.624 583.305 155.287 584.868C155.962 586.43 156.909 587.644 158.128 588.508C159.359 589.372 160.803 589.804 162.461 589.804C163.55 589.804 164.538 589.615 165.426 589.236C166.314 588.857 167.065 588.312 167.681 587.602C168.296 586.892 168.734 586.04 168.995 585.045H173.185C172.948 586.655 172.362 588.105 171.427 589.396C170.504 590.674 169.279 591.692 167.752 592.45C166.237 593.195 164.473 593.568 162.461 593.568ZM183.217 583.057L183.146 577.872H183.998L195.93 565.727H201.115L188.402 578.582H188.047L183.217 583.057ZM179.311 593V556.636H183.501V593H179.311ZM196.64 593L185.987 579.506L188.97 576.594L201.967 593H196.64Z" fill="#110202"/>
<path d="M589.245 856H585.367L596.583 825.455H600.401L611.617 856H607.739L598.611 830.287H598.373L589.245 856ZM590.676 844.068H606.307V847.349H590.676V844.068ZM630.335 846.634V833.091H633.855V856H630.335V852.122H630.096C629.559 853.286 628.724 854.275 627.591 855.09C626.457 855.896 625.025 856.298 623.295 856.298C621.863 856.298 620.591 855.985 619.477 855.359C618.363 854.722 617.488 853.768 616.852 852.495C616.216 851.212 615.897 849.597 615.897 847.648V833.091H619.417V847.409C619.417 849.08 619.885 850.412 620.819 851.406C621.764 852.401 622.967 852.898 624.429 852.898C625.304 852.898 626.194 852.674 627.098 852.227C628.013 851.779 628.779 851.093 629.395 850.168C630.022 849.244 630.335 848.065 630.335 846.634ZM648.952 856.477C647.043 856.477 645.358 855.995 643.896 855.031C642.434 854.056 641.291 852.684 640.466 850.914C639.64 849.134 639.228 847.031 639.228 844.605C639.228 842.199 639.64 840.111 640.466 838.341C641.291 836.571 642.439 835.204 643.911 834.239C645.383 833.275 647.083 832.793 649.012 832.793C650.503 832.793 651.682 833.041 652.547 833.538C653.422 834.026 654.088 834.582 654.545 835.209C655.013 835.825 655.376 836.332 655.634 836.73H655.932V825.455H659.452V856H656.052V852.48H655.634C655.376 852.898 655.008 853.425 654.53 854.061C654.053 854.687 653.372 855.249 652.487 855.746C651.602 856.234 650.424 856.477 648.952 856.477ZM649.43 853.315C650.841 853.315 652.035 852.947 653.009 852.212C653.983 851.466 654.724 850.437 655.231 849.124C655.738 847.802 655.992 846.276 655.992 844.545C655.992 842.835 655.743 841.339 655.246 840.056C654.749 838.763 654.013 837.759 653.039 837.043C652.064 836.317 650.861 835.955 649.43 835.955C647.938 835.955 646.695 836.337 645.701 837.103C644.716 837.859 643.976 838.888 643.479 840.19C642.991 841.483 642.748 842.935 642.748 844.545C642.748 846.176 642.996 847.658 643.493 848.99C644.001 850.312 644.746 851.366 645.731 852.152C646.725 852.928 647.958 853.315 649.43 853.315ZM666.388 856V833.091H669.907V856H666.388ZM668.177 829.273C667.491 829.273 666.9 829.039 666.403 828.572C665.915 828.104 665.672 827.543 665.672 826.886C665.672 826.23 665.915 825.668 666.403 825.201C666.9 824.734 667.491 824.5 668.177 824.5C668.863 824.5 669.45 824.734 669.937 825.201C670.434 825.668 670.683 826.23 670.683 826.886C670.683 827.543 670.434 828.104 669.937 828.572C669.45 829.039 668.863 829.273 668.177 829.273ZM686.317 833.091V836.074H674.445V833.091H686.317ZM677.906 827.602H681.425V849.438C681.425 850.432 681.57 851.178 681.858 851.675C682.156 852.162 682.534 852.49 682.991 852.659C683.459 852.818 683.951 852.898 684.468 852.898C684.856 852.898 685.174 852.878 685.423 852.838C685.671 852.788 685.87 852.749 686.019 852.719L686.735 855.881C686.496 855.97 686.163 856.06 685.736 856.149C685.308 856.249 684.766 856.298 684.11 856.298C683.116 856.298 682.141 856.085 681.187 855.657C680.242 855.229 679.457 854.578 678.83 853.703C678.214 852.828 677.906 851.724 677.906 850.392V827.602ZM700.673 856.477C698.605 856.477 696.79 855.985 695.229 855.001C693.678 854.016 692.465 852.639 691.59 850.869C690.725 849.099 690.292 847.031 690.292 844.665C690.292 842.278 690.725 840.195 691.59 838.415C692.465 836.636 693.678 835.254 695.229 834.269C696.79 833.285 698.605 832.793 700.673 832.793C702.741 832.793 704.551 833.285 706.102 834.269C707.663 835.254 708.876 836.636 709.741 838.415C710.616 840.195 711.054 842.278 711.054 844.665C711.054 847.031 710.616 849.099 709.741 850.869C708.876 852.639 707.663 854.016 706.102 855.001C704.551 855.985 702.741 856.477 700.673 856.477ZM700.673 853.315C702.244 853.315 703.537 852.913 704.551 852.107C705.565 851.302 706.316 850.243 706.803 848.93C707.29 847.618 707.534 846.196 707.534 844.665C707.534 843.134 707.29 841.707 706.803 840.384C706.316 839.062 705.565 837.993 704.551 837.178C703.537 836.362 702.244 835.955 700.673 835.955C699.102 835.955 697.809 836.362 696.795 837.178C695.781 837.993 695.03 839.062 694.543 840.384C694.056 841.707 693.812 843.134 693.812 844.665C693.812 846.196 694.056 847.618 694.543 848.93C695.03 850.243 695.781 851.302 696.795 852.107C697.809 852.913 699.102 853.315 700.673 853.315ZM716.427 856V833.091H719.827V836.551H720.066C720.483 835.418 721.239 834.498 722.333 833.792C723.427 833.086 724.66 832.733 726.032 832.733C726.29 832.733 726.613 832.738 727.001 832.748C727.389 832.758 727.682 832.773 727.881 832.793V836.372C727.762 836.342 727.488 836.298 727.061 836.238C726.643 836.168 726.201 836.134 725.733 836.134C724.62 836.134 723.626 836.367 722.751 836.835C721.885 837.292 721.199 837.928 720.692 838.744C720.195 839.549 719.947 840.469 719.947 841.503V856H716.427ZM732.054 856V833.091H735.574V856H732.054ZM733.843 829.273C733.157 829.273 732.566 829.039 732.069 828.572C731.581 828.104 731.338 827.543 731.338 826.886C731.338 826.23 731.581 825.668 732.069 825.201C732.566 824.734 733.157 824.5 733.843 824.5C734.529 824.5 735.116 824.734 735.603 825.201C736.1 825.668 736.349 826.23 736.349 826.886C736.349 827.543 736.1 828.104 735.603 828.572C735.116 829.039 734.529 829.273 733.843 829.273ZM756.458 846.634V833.091H759.978V856H756.458V852.122H756.219C755.682 853.286 754.847 854.275 753.714 855.09C752.58 855.896 751.148 856.298 749.418 856.298C747.986 856.298 746.714 855.985 745.6 855.359C744.486 854.722 743.611 853.768 742.975 852.495C742.339 851.212 742.02 849.597 742.02 847.648V833.091H745.54V847.409C745.54 849.08 746.008 850.412 746.942 851.406C747.887 852.401 749.09 852.898 750.552 852.898C751.427 852.898 752.317 852.674 753.221 852.227C754.136 851.779 754.902 851.093 755.518 850.168C756.145 849.244 756.458 848.065 756.458 846.634ZM766.425 856V833.091H769.825V836.67H770.124C770.601 835.447 771.371 834.498 772.435 833.822C773.499 833.136 774.777 832.793 776.268 832.793C777.78 832.793 779.038 833.136 780.042 833.822C781.056 834.498 781.847 835.447 782.413 836.67H782.652C783.239 835.487 784.119 834.548 785.292 833.852C786.465 833.146 787.872 832.793 789.513 832.793C791.561 832.793 793.237 833.434 794.539 834.717C795.842 835.989 796.493 837.973 796.493 840.668V856H792.973V840.668C792.973 838.977 792.511 837.769 791.586 837.043C790.661 836.317 789.572 835.955 788.32 835.955C786.709 835.955 785.461 836.442 784.576 837.416C783.691 838.381 783.249 839.604 783.249 841.085V856H779.669V840.31C779.669 839.007 779.246 837.958 778.401 837.163C777.556 836.357 776.467 835.955 775.135 835.955C774.22 835.955 773.365 836.198 772.57 836.685C771.784 837.173 771.148 837.849 770.661 838.714C770.183 839.569 769.945 840.558 769.945 841.682V856H766.425Z" fill="#110202"/>
</svg>
